<svg xmlns="http://www.w3.org/2000/svg" xmlns:xlink="http://www.w3.org/1999/xlink" width="320" height="180" viewBox="0 0 320 180">
    <defs>
        <path id="prefix__a" d="M0 0H360V180H0z"/>
    </defs>
    <g fill="none" fill-rule="evenodd">
        <mask id="prefix__b" fill="#fff">
            <use xlink:href="#prefix__a"/>
        </mask>
        <use fill="#D8D8D8" fill-opacity="0" xlink:href="#prefix__a"/>
        <g fill="#FFF" mask="url(#prefix__b)" opacity=".08">
            <g fill-rule="nonzero">
                <path d="M102 111c3.89 0 7.043 3.153 7.043 7.043l-.004 7.668 1.205.229c4.855 1.02 9.448 2.935 13.57 5.63l.979.673 5.43-5.427c2.579-2.579 6.66-2.74 9.426-.483l.535.483c2.75 2.75 2.75 7.21 0 9.961l-5.432 5.426.678.983c2.695 4.122 4.61 8.715 5.63 13.57l.224 1.2h7.673c3.66 0 6.67 2.794 7.01 6.366L156 165c0 3.89-3.153 7.043-7.043 7.043l-7.673-.004-.224 1.205c-1.02 4.855-2.935 9.448-5.63 13.57l-.678.979 5.432 5.43c2.578 2.579 2.74 6.66.483 9.426l-.483.535c-2.75 2.75-7.21 2.75-9.961 0l-5.43-5.432-.979.678c-4.122 2.695-8.715 4.61-13.57 5.63l-1.2.224v7.673c0 3.66-2.794 6.67-6.366 7.01L102 219c-3.89 0-7.043-3.153-7.043-7.043v-7.673l-1.201-.224c-4.855-1.02-9.448-2.935-13.57-5.63l-.983-.678-5.426 5.432c-2.579 2.578-6.66 2.74-9.426.483l-.535-.483c-2.75-2.75-2.75-7.21 0-9.961l5.427-5.43-.673-.979c-2.695-4.122-4.61-8.715-5.63-13.57l-.229-1.2h-7.668c-3.66 0-6.67-2.794-7.01-6.366L48 165c0-3.89 3.153-7.043 7.043-7.043h7.668l.229-1.201c1.02-4.855 2.935-9.448 5.63-13.57l.673-.983-5.427-5.426c-2.579-2.579-2.74-6.66-.483-9.426l.483-.535c2.75-2.75 7.21-2.75 9.961 0l5.426 5.427.983-.673c4.122-2.695 8.715-4.61 13.57-5.63l1.2-.229v-7.668c0-3.66 2.794-6.67 6.366-7.01zm0 4.696c-1.297 0-2.348 1.05-2.348 2.347l-.004 9.35.192 2.383-2.232.278c-6.32.785-12.24 3.263-17.215 7.134l-1.736 1.35-1.56-1.76-6.64-6.641c-.917-.917-2.404-.917-3.32 0-.917.916-.917 2.403 0 3.32l6.633 6.633 1.9 1.399-1.482 1.904c-3.871 4.975-6.349 10.896-7.134 17.215l-.27 2.164-2.35-.12h-9.39c-1.297 0-2.348 1.051-2.348 2.348s1.05 2.348 2.347 2.348l9.275.003 2.467-.123.269 2.164c.785 6.32 3.263 12.24 7.134 17.215l1.35 1.736-1.76 1.56-6.641 6.64c-.917.917-.917 2.404 0 3.32.916.917 2.403.917 3.32 0l6.546-6.54 1.654-1.861 1.736 1.35c4.975 3.871 10.896 6.349 17.215 7.134l2.164.27-.12 2.35v9.39c0 1.297 1.051 2.348 2.348 2.348s2.348-1.05 2.348-2.347v-9.392l-.288-2.329 2.332-.29c6.32-.785 12.24-3.263 17.215-7.134l1.736-1.35 1.56 1.76 6.64 6.641c.917.917 2.404.917 3.32 0 .917-.916.917-2.403 0-3.32l-6.642-6.642-1.89-1.39 1.481-1.904c3.871-4.975 6.349-10.896 7.134-17.215l.27-2.164 2.35.12h9.39c1.297 0 2.348-1.051 2.348-2.348s-1.05-2.348-2.347-2.348l-9.275-.003-2.467.123-.269-2.164c-.785-6.32-3.263-12.24-7.134-17.215l-1.35-1.736 1.76-1.56 6.641-6.64c.917-.917.917-2.404 0-3.32-.916-.917-2.403-.917-3.32 0l-6.546 6.54-1.654 1.861-1.736-1.35c-4.975-3.871-10.896-6.349-17.215-7.134l-2.164-.27.12-2.35v-9.39c0-1.297-1.051-2.348-2.348-2.348zM108.5 169c3.819 0 6.5 4.64 6.5 10s-2.681 10-6.5 10-6.5-4.64-6.5-10 2.681-10 6.5-10zm0 5c-.968 0-2.167 2.075-2.167 5s1.2 5 2.167 5c.968 0 2.167-2.075 2.167-5s-1.2-5-2.167-5zm10.5-25c5.705 0 10 5.269 10 11.5s-4.295 11.5-10 11.5-10-5.269-10-11.5 4.295-11.5 10-11.5zm0 4.6c-2.58 0-5 2.969-5 6.9 0 3.931 2.42 6.9 5 6.9s5-2.969 5-6.9c0-3.931-2.42-6.9-5-6.9zM97.5 148c3.59 0 6.5 2.91 6.5 6.5s-2.91 6.5-6.5 6.5-6.5-2.91-6.5-6.5 2.91-6.5 6.5-6.5zm0 4.333c-1.197 0-2.167.97-2.167 2.167 0 1.197.97 2.167 2.167 2.167 1.197 0 2.167-.97 2.167-2.167 0-1.197-.97-2.167-2.167-2.167zM332 78c3.89 0 7.043 3.153 7.043 7.043l-.004 7.668 1.205.229c4.855 1.02 9.448 2.935 13.57 5.63l.979.673 5.43-5.427c2.579-2.579 6.66-2.74 9.426-.483l.535.483c2.75 2.75 2.75 7.21 0 9.961l-5.432 5.426.678.983c2.695 4.122 4.61 8.715 5.63 13.57l.224 1.2h7.673c3.66 0 6.67 2.794 7.01 6.366L386 132c0 3.89-3.153 7.043-7.043 7.043l-7.673-.004-.224 1.205c-1.02 4.855-2.935 9.448-5.63 13.57l-.678.979 5.432 5.43c2.578 2.579 2.74 6.66.483 9.426l-.483.535c-2.75 2.75-7.21 2.75-9.961 0l-5.43-5.432-.979.678c-4.122 2.695-8.715 4.61-13.57 5.63l-1.2.224v7.673c0 3.66-2.794 6.67-6.366 7.01L332 186c-3.89 0-7.043-3.153-7.043-7.043v-7.673l-1.201-.224c-4.855-1.02-9.448-2.935-13.57-5.63l-.983-.678-5.426 5.432c-2.579 2.578-6.66 2.74-9.426.483l-.535-.483c-2.75-2.75-2.75-7.21 0-9.961l5.427-5.43-.673-.979c-2.695-4.122-4.61-8.715-5.63-13.57l-.229-1.2h-7.668c-3.66 0-6.67-2.794-7.01-6.366L278 132c0-3.89 3.153-7.043 7.043-7.043h7.668l.229-1.201c1.02-4.855 2.935-9.448 5.63-13.57l.673-.983-5.427-5.426c-2.578-2.579-2.74-6.66-.483-9.426l.483-.535c2.75-2.75 7.21-2.75 9.961 0l5.426 5.427.983-.673c4.122-2.695 8.715-4.61 13.57-5.63l1.2-.229v-7.668c0-3.66 2.794-6.67 6.366-7.01zm0 4.696c-1.297 0-2.348 1.05-2.348 2.347l-.004 9.35.192 2.383-2.232.278c-6.32.785-12.24 3.263-17.215 7.134l-1.736 1.35-1.56-1.76-6.64-6.641c-.917-.917-2.404-.917-3.32 0-.917.916-.917 2.403 0 3.32l6.633 6.633 1.9 1.399-1.482 1.904c-3.871 4.975-6.349 10.896-7.134 17.215l-.27 2.164-2.35-.12h-9.39c-1.297 0-2.348 1.051-2.348 2.348s1.05 2.348 2.347 2.348l9.275.003 2.467-.123.269 2.164c.785 6.32 3.263 12.24 7.134 17.215l1.35 1.736-1.76 1.56-6.641 6.64c-.917.917-.917 2.404 0 3.32.916.917 2.403.917 3.32 0l6.546-6.54 1.654-1.861 1.736 1.35c4.975 3.871 10.896 6.349 17.215 7.134l2.164.27-.12 2.35v9.39c0 1.297 1.051 2.348 2.348 2.348s2.348-1.05 2.348-2.347v-9.392l-.288-2.329 2.332-.29c6.32-.785 12.24-3.263 17.215-7.134l1.736-1.35 1.56 1.76 6.64 6.641c.917.917 2.404.917 3.32 0 .917-.916.917-2.403 0-3.32l-6.642-6.642-1.89-1.39 1.481-1.904c3.871-4.975 6.349-10.896 7.134-17.215l.27-2.164 2.35.12h9.39c1.297 0 2.348-1.051 2.348-2.348s-1.05-2.348-2.347-2.348l-9.275-.003-2.467.123-.269-2.164c-.785-6.32-3.263-12.24-7.134-17.215l-1.35-1.736 1.76-1.56 6.641-6.64c.917-.917.917-2.404 0-3.32-.916-.917-2.403-.917-3.32 0l-6.546 6.54-1.654 1.861-1.736-1.35c-4.975-3.871-10.896-6.349-17.215-7.134l-2.164-.27.12-2.35v-9.39c0-1.297-1.051-2.348-2.348-2.348zM338.5 136c3.819 0 6.5 4.64 6.5 10s-2.681 10-6.5 10-6.5-4.64-6.5-10 2.681-10 6.5-10zm0 5c-.968 0-2.167 2.075-2.167 5s1.2 5 2.167 5c.968 0 2.167-2.075 2.167-5s-1.2-5-2.167-5zm10.5-25c5.705 0 10 5.269 10 11.5s-4.295 11.5-10 11.5-10-5.269-10-11.5 4.295-11.5 10-11.5zm0 4.6c-2.58 0-5 2.969-5 6.9 0 3.931 2.42 6.9 5 6.9s5-2.969 5-6.9c0-3.931-2.42-6.9-5-6.9zm-21.5-5.6c3.59 0 6.5 2.91 6.5 6.5s-2.91 6.5-6.5 6.5-6.5-2.91-6.5-6.5 2.91-6.5 6.5-6.5zm0 4.333c-1.197 0-2.167.97-2.167 2.167 0 1.197.97 2.167 2.167 2.167 1.197 0 2.167-.97 2.167-2.167 0-1.197-.97-2.167-2.167-2.167zM232 148c2.377 0 4.304 1.927 4.304 4.304l-.003 4.686.737.14c2.967.623 5.774 1.793 8.293 3.44l.598.412 3.318-3.317c1.576-1.575 4.07-1.674 5.76-.295l.328.295c1.68 1.681 1.68 4.407 0 6.088l-3.32 3.315.414.601c1.648 2.52 2.818 5.326 3.441 8.293l.137.734h4.689c2.237 0 4.076 1.707 4.284 3.89l.02.414c0 2.377-1.927 4.304-4.304 4.304l-4.69-.003-.136.737c-.623 2.967-1.793 5.774-3.44 8.293l-.415.598 3.32 3.318c1.575 1.576 1.674 4.07.295 5.76l-.295.328c-1.681 1.68-4.407 1.68-6.088 0l-3.318-3.32-.598.414c-2.52 1.648-5.326 2.818-8.293 3.441l-.734.137v4.689c0 2.237-1.707 4.076-3.89 4.284L232 214c-2.377 0-4.304-1.927-4.304-4.304v-4.69l-.734-.136c-2.967-.623-5.774-1.793-8.293-3.44l-.6-.415-3.316 3.32c-1.576 1.575-4.07 1.674-5.76.295l-.328-.295c-1.68-1.681-1.68-4.407 0-6.088l3.317-3.318-.411-.598c-1.648-2.52-2.818-5.326-3.441-8.293l-.14-.734h-4.686c-2.237 0-4.076-1.707-4.284-3.89L199 181c0-2.377 1.927-4.304 4.304-4.304h4.686l.14-.734c.623-2.967 1.793-5.774 3.44-8.293l.412-.6-3.317-3.316c-1.575-1.576-1.674-4.07-.295-5.76l.295-.328c1.681-1.68 4.407-1.68 6.088 0l3.315 3.317.601-.411c2.52-1.648 5.326-2.818 8.293-3.441l.734-.14v-4.686c0-2.237 1.707-4.076 3.89-4.284zm0 2.87c-.792 0-1.435.642-1.435 1.434l-.003 5.714.118 1.456-1.364.17c-3.862.48-7.48 1.994-10.52 4.36l-1.061.825-.953-1.076-4.058-4.058c-.56-.56-1.47-.56-2.03 0-.56.56-.56 1.468 0 2.029l4.054 4.053 1.161.855-.905 1.164c-2.366 3.04-3.88 6.658-4.36 10.52l-.165 1.322-1.436-.073h-5.739c-.792 0-1.434.643-1.434 1.435s.642 1.435 1.434 1.435l5.668.002 1.507-.075.165 1.322c.48 3.862 1.994 7.48 4.36 10.52l.825 1.061-1.076.953-4.058 4.058c-.56.56-.56 1.47 0 2.03.56.56 1.468.56 2.029 0l4-3.997 1.01-1.138 1.062.825c3.04 2.366 6.658 3.88 10.52 4.36l1.322.165-.073 1.436v5.739c0 .792.643 1.434 1.435 1.434s1.435-.642 1.435-1.434v-5.74l-.176-1.423 1.425-.177c3.862-.48 7.48-1.994 10.52-4.36l1.061-.825.953 1.076 4.058 4.058c.56.56 1.47.56 2.03 0 .56-.56.56-1.468 0-2.029l-4.06-4.059-1.155-.849.905-1.164c2.366-3.04 3.88-6.658 4.36-10.52l.165-1.322 1.436.073h5.739c.792 0 1.434-.643 1.434-1.435s-.642-1.435-1.434-1.435l-5.668-.002-1.507.075-.165-1.322c-.48-3.862-1.994-7.48-4.36-10.52l-.825-1.061 1.076-.953 4.058-4.058c.56-.56.56-1.47 0-2.03-.56-.56-1.468-.56-2.029 0l-4 3.997-1.01 1.138-1.062-.825c-3.04-2.366-6.658-3.88-10.52-4.36l-1.322-.165.073-1.436v-5.739c0-.792-.643-1.434-1.435-1.434zm4.024 32.545c2.365 0 4.025 2.8 4.025 6.036 0 3.236-1.66 6.037-4.025 6.037-2.364 0-4.024-2.801-4.024-6.037 0-3.235 1.66-6.036 4.024-6.036zm0 3.018c-.599 0-1.341 1.253-1.341 3.018 0 1.766.742 3.019 1.341 3.019.6 0 1.342-1.253 1.342-3.019 0-1.765-.743-3.018-1.342-3.018zm6.037-15.896c3.444 0 6.037 3.319 6.037 7.243 0 3.925-2.593 7.244-6.037 7.244s-6.037-3.319-6.037-7.244c0-3.924 2.593-7.243 6.037-7.243zm0 2.897c-1.557 0-3.018 1.87-3.018 4.346 0 2.477 1.46 4.347 3.018 4.347 1.557 0 3.018-1.87 3.018-4.347 0-2.476-1.46-4.346-3.018-4.346zm-12.476-2.897c2.223 0 4.025 1.801 4.025 4.024s-1.802 4.024-4.025 4.024c-2.222 0-4.024-1.801-4.024-4.024s1.802-4.024 4.024-4.024zm0 2.683c-.74 0-1.341.6-1.341 1.341 0 .74.6 1.341 1.341 1.341s1.342-.6 1.342-1.341c0-.74-.6-1.341-1.342-1.341zM180 0c2.377 0 4.304 1.927 4.304 4.304l-.003 4.686.737.14c2.967.623 5.774 1.793 8.293 3.44l.598.412 3.318-3.317c1.576-1.575 4.07-1.674 5.76-.295l.328.295c1.68 1.681 1.68 4.407 0 6.088l-3.32 3.315.414.601c1.648 2.52 2.818 5.326 3.441 8.293l.137.734h4.689c2.237 0 4.076 1.707 4.284 3.89L213 33c0 2.377-1.927 4.304-4.304 4.304l-4.69-.003-.136.737c-.623 2.967-1.793 5.774-3.44 8.293l-.415.598 3.32 3.318c1.575 1.576 1.674 4.07.295 5.76l-.295.328c-1.681 1.68-4.407 1.68-6.088 0l-3.318-3.32-.598.414c-2.52 1.648-5.326 2.818-8.293 3.441l-.734.137v4.689c0 2.237-1.707 4.076-3.89 4.284L180 66c-2.377 0-4.304-1.927-4.304-4.304v-4.69l-.734-.136c-2.967-.623-5.774-1.793-8.293-3.44l-.6-.415-3.316 3.32c-1.576 1.575-4.07 1.674-5.76.295l-.328-.295c-1.68-1.681-1.68-4.407 0-6.088l3.317-3.318-.411-.598c-1.648-2.52-2.818-5.326-3.441-8.293l-.14-.734h-4.686c-2.237 0-4.076-1.707-4.284-3.89L147 33c0-2.377 1.927-4.304 4.304-4.304h4.686l.14-.734c.623-2.967 1.793-5.774 3.44-8.293l.412-.6-3.317-3.316c-1.575-1.576-1.674-4.07-.295-5.76l.295-.328c1.681-1.68 4.407-1.68 6.088 0l3.315 3.317.601-.411c2.52-1.648 5.326-2.818 8.293-3.441l.734-.14V4.304c0-2.237 1.707-4.076 3.89-4.284zm0 2.87c-.792 0-1.435.642-1.435 1.434l-.003 5.714.118 1.456-1.364.17c-3.862.48-7.48 1.994-10.52 4.36l-1.061.825-.953-1.076-4.058-4.058c-.56-.56-1.47-.56-2.03 0-.56.56-.56 1.468 0 2.029l4.054 4.053 1.161.855-.905 1.164c-2.366 3.04-3.88 6.658-4.36 10.52l-.165 1.322-1.436-.073h-5.739c-.792 0-1.434.643-1.434 1.435s.642 1.435 1.434 1.435l5.668.002 1.507-.075.165 1.322c.48 3.862 1.994 7.48 4.36 10.52l.825 1.061-1.076.953-4.058 4.058c-.56.56-.56 1.47 0 2.03.56.56 1.468.56 2.029 0l4-3.997 1.01-1.138 1.062.825c3.04 2.366 6.658 3.88 10.52 4.36l1.322.165-.073 1.436v5.739c0 .792.643 1.434 1.435 1.434s1.435-.642 1.435-1.434v-5.74l-.176-1.423 1.425-.177c3.862-.48 7.48-1.994 10.52-4.36l1.061-.825.953 1.076 4.058 4.058c.56.56 1.47.56 2.03 0 .56-.56.56-1.468 0-2.029l-4.06-4.059-1.155-.849.905-1.164c2.366-3.04 3.88-6.658 4.36-10.52l.165-1.322 1.436.073h5.739c.792 0 1.434-.643 1.434-1.435s-.642-1.435-1.434-1.435l-5.668-.002-1.507.075-.165-1.322c-.48-3.862-1.994-7.48-4.36-10.52l-.825-1.061 1.076-.953 4.058-4.058c.56-.56.56-1.47 0-2.03-.56-.56-1.468-.56-2.029 0l-4 3.997-1.01 1.138-1.062-.825c-3.04-2.366-6.658-3.88-10.52-4.36l-1.322-.165.073-1.436V4.304c0-.792-.643-1.434-1.435-1.434zm4.024 32.545c2.365 0 4.025 2.8 4.025 6.036 0 3.236-1.66 6.037-4.025 6.037-2.364 0-4.024-2.801-4.024-6.037 0-3.235 1.66-6.036 4.024-6.036zm0 3.018c-.599 0-1.341 1.253-1.341 3.018 0 1.766.742 3.019 1.341 3.019.6 0 1.342-1.253 1.342-3.019 0-1.765-.743-3.018-1.342-3.018zm6.037-15.896c3.444 0 6.037 3.319 6.037 7.243 0 3.925-2.593 7.244-6.037 7.244s-6.037-3.319-6.037-7.244c0-3.924 2.593-7.243 6.037-7.243zm0 2.897c-1.557 0-3.018 1.87-3.018 4.346 0 2.477 1.46 4.347 3.018 4.347 1.557 0 3.018-1.87 3.018-4.347 0-2.476-1.46-4.346-3.018-4.346zm-12.476-2.897c2.223 0 4.025 1.801 4.025 4.024s-1.802 4.024-4.025 4.024c-2.222 0-4.024-1.801-4.024-4.024s1.802-4.024 4.024-4.024zm0 2.683c-.74 0-1.341.6-1.341 1.341 0 .74.6 1.341 1.341 1.341s1.342-.6 1.342-1.341c0-.74-.6-1.341-1.342-1.341zM33 25c2.377 0 4.304 1.927 4.304 4.304l-.003 4.686.737.14c2.967.623 5.774 1.793 8.293 3.44l.598.412 3.318-3.317c1.576-1.575 4.07-1.674 5.76-.295l.328.295c1.68 1.681 1.68 4.407 0 6.088l-3.32 3.315.414.601c1.648 2.52 2.818 5.326 3.441 8.293l.137.734h4.689c2.237 0 4.076 1.707 4.284 3.89L66 58c0 2.377-1.927 4.304-4.304 4.304l-4.69-.003-.136.737c-.623 2.967-1.793 5.774-3.44 8.293l-.415.598 3.32 3.318c1.575 1.576 1.674 4.07.295 5.76l-.295.328c-1.681 1.68-4.407 1.68-6.088 0l-3.318-3.32-.598.414c-2.52 1.648-5.326 2.818-8.293 3.441l-.734.137v4.689c0 2.237-1.707 4.076-3.89 4.284L33 91c-2.377 0-4.304-1.927-4.304-4.304v-4.69l-.734-.136c-2.967-.623-5.774-1.793-8.293-3.44l-.6-.415-3.316 3.32c-1.576 1.575-4.07 1.674-5.76.295l-.328-.295c-1.68-1.681-1.68-4.407 0-6.088l3.317-3.318-.411-.598c-1.648-2.52-2.818-5.326-3.441-8.293l-.14-.734H4.304c-2.237 0-4.076-1.707-4.284-3.89L0 58c0-2.377 1.927-4.304 4.304-4.304H8.99l.14-.734c.623-2.967 1.793-5.774 3.44-8.293l.412-.6-3.317-3.316c-1.575-1.576-1.674-4.07-.295-5.76l.295-.328c1.681-1.68 4.407-1.68 6.088 0l3.315 3.317.601-.411c2.52-1.648 5.326-2.818 8.293-3.441l.734-.14v-4.686c0-2.237 1.707-4.076 3.89-4.284zm0 2.87c-.792 0-1.435.642-1.435 1.434l-.003 5.714.118 1.456-1.364.17c-3.862.48-7.48 1.994-10.52 4.36l-1.061.825-.953-1.076-4.058-4.058c-.56-.56-1.47-.56-2.03 0-.56.56-.56 1.468 0 2.029l4.054 4.053 1.161.855-.905 1.164c-2.366 3.04-3.88 6.658-4.36 10.52l-.165 1.322-1.436-.073H4.304c-.792 0-1.434.643-1.434 1.435s.642 1.435 1.434 1.435l5.668.002 1.507-.075.165 1.322c.48 3.862 1.994 7.48 4.36 10.52l.825 1.061-1.076.953-4.058 4.058c-.56.56-.56 1.47 0 2.03.56.56 1.468.56 2.029 0l4-3.997 1.01-1.138 1.062.825c3.04 2.366 6.658 3.88 10.52 4.36l1.322.165-.073 1.436v5.739c0 .792.643 1.434 1.435 1.434s1.435-.642 1.435-1.434v-5.74l-.176-1.423 1.425-.177c3.862-.48 7.48-1.994 10.52-4.36l1.061-.825.953 1.076 4.058 4.058c.56.56 1.47.56 2.03 0 .56-.56.56-1.468 0-2.029l-4.06-4.059-1.155-.849.905-1.164c2.366-3.04 3.88-6.658 4.36-10.52l.165-1.322 1.436.073h5.739c.792 0 1.434-.643 1.434-1.435s-.642-1.435-1.434-1.435l-5.668-.002-1.507.075-.165-1.322c-.48-3.862-1.994-7.48-4.36-10.52l-.825-1.061 1.076-.953 4.058-4.058c.56-.56.56-1.47 0-2.03-.56-.56-1.468-.56-2.029 0l-4 3.997-1.01 1.138-1.062-.825c-3.04-2.366-6.658-3.88-10.52-4.36l-1.322-.165.073-1.436v-5.739c0-.792-.643-1.434-1.435-1.434zm4.024 32.545c2.365 0 4.025 2.8 4.025 6.036 0 3.236-1.66 6.037-4.025 6.037-2.364 0-4.024-2.801-4.024-6.037 0-3.235 1.66-6.036 4.024-6.036zm0 3.018c-.599 0-1.341 1.253-1.341 3.018 0 1.766.742 3.019 1.341 3.019.6 0 1.342-1.253 1.342-3.019 0-1.765-.743-3.018-1.342-3.018zm6.037-15.896c3.444 0 6.037 3.319 6.037 7.243 0 3.925-2.593 7.244-6.037 7.244s-6.037-3.319-6.037-7.244c0-3.924 2.593-7.243 6.037-7.243zm0 2.897c-1.557 0-3.018 1.87-3.018 4.346 0 2.477 1.46 4.347 3.018 4.347 1.557 0 3.018-1.87 3.018-4.347 0-2.476-1.46-4.346-3.018-4.346zm-12.476-2.897c2.223 0 4.025 1.801 4.025 4.024s-1.802 4.024-4.025 4.024c-2.222 0-4.024-1.801-4.024-4.024s1.802-4.024 4.024-4.024zm0 2.683c-.74 0-1.341.6-1.341 1.341 0 .74.6 1.341 1.341 1.341s1.342-.6 1.342-1.341c0-.74-.6-1.341-1.342-1.341zM393 25c2.377 0 4.304 1.927 4.304 4.304l-.003 4.686.737.14c2.967.623 5.774 1.793 8.293 3.44l.598.412 3.318-3.317c1.576-1.575 4.07-1.674 5.76-.295l.328.295c1.68 1.681 1.68 4.407 0 6.088l-3.32 3.315.414.601c1.648 2.52 2.818 5.326 3.441 8.293l.137.734h4.689c2.237 0 4.076 1.707 4.284 3.89L426 58c0 2.377-1.927 4.304-4.304 4.304l-4.69-.003-.136.737c-.623 2.967-1.793 5.774-3.44 8.293l-.415.598 3.32 3.318c1.575 1.576 1.674 4.07.295 5.76l-.295.328c-1.681 1.68-4.407 1.68-6.088 0l-3.318-3.32-.598.414c-2.52 1.648-5.326 2.818-8.293 3.441l-.734.137v4.689c0 2.237-1.707 4.076-3.89 4.284L393 91c-2.377 0-4.304-1.927-4.304-4.304v-4.69l-.734-.136c-2.967-.623-5.774-1.793-8.293-3.44l-.6-.415-3.316 3.32c-1.576 1.575-4.07 1.674-5.76.295l-.328-.295c-1.68-1.681-1.68-4.407 0-6.088l3.317-3.318-.411-.598c-1.648-2.52-2.818-5.326-3.441-8.293l-.14-.734h-4.686c-2.237 0-4.076-1.707-4.284-3.89L360 58c0-2.377 1.927-4.304 4.304-4.304h4.686l.14-.734c.623-2.967 1.793-5.774 3.44-8.293l.412-.6-3.317-3.316c-1.575-1.576-1.674-4.07-.295-5.76l.295-.328c1.681-1.68 4.407-1.68 6.088 0l3.315 3.317.601-.411c2.52-1.648 5.326-2.818 8.293-3.441l.734-.14v-4.686c0-2.237 1.707-4.076 3.89-4.284zm0 2.87c-.792 0-1.435.642-1.435 1.434l-.003 5.714.118 1.456-1.364.17c-3.862.48-7.48 1.994-10.52 4.36l-1.061.825-.953-1.076-4.058-4.058c-.56-.56-1.47-.56-2.03 0-.56.56-.56 1.468 0 2.029l4.054 4.053 1.161.855-.905 1.164c-2.366 3.04-3.88 6.658-4.36 10.52l-.165 1.322-1.436-.073h-5.739c-.792 0-1.434.643-1.434 1.435s.642 1.435 1.434 1.435l5.668.002 1.507-.075.165 1.322c.48 3.862 1.994 7.48 4.36 10.52l.825 1.061-1.076.953-4.058 4.058c-.56.56-.56 1.47 0 2.03.56.56 1.468.56 2.029 0l4-3.997 1.01-1.138 1.062.825c3.04 2.366 6.658 3.88 10.52 4.36l1.322.165-.073 1.436v5.739c0 .792.643 1.434 1.435 1.434s1.435-.642 1.435-1.434v-5.74l-.176-1.423 1.425-.177c3.862-.48 7.48-1.994 10.52-4.36l1.061-.825.953 1.076 4.058 4.058c.56.56 1.47.56 2.03 0 .56-.56.56-1.468 0-2.029l-4.06-4.059-1.155-.849.905-1.164c2.366-3.04 3.88-6.658 4.36-10.52l.165-1.322 1.436.073h5.739c.792 0 1.434-.643 1.434-1.435s-.642-1.435-1.434-1.435l-5.668-.002-1.507.075-.165-1.322c-.48-3.862-1.994-7.48-4.36-10.52l-.825-1.061 1.076-.953 4.058-4.058c.56-.56.56-1.47 0-2.03-.56-.56-1.468-.56-2.029 0l-4 3.997-1.01 1.138-1.062-.825c-3.04-2.366-6.658-3.88-10.52-4.36l-1.322-.165.073-1.436v-5.739c0-.792-.643-1.434-1.435-1.434zm4.024 32.545c2.365 0 4.025 2.8 4.025 6.036 0 3.236-1.66 6.037-4.025 6.037-2.364 0-4.024-2.801-4.024-6.037 0-3.235 1.66-6.036 4.024-6.036zm0 3.018c-.599 0-1.341 1.253-1.341 3.018 0 1.766.742 3.019 1.341 3.019.6 0 1.342-1.253 1.342-3.019 0-1.765-.743-3.018-1.342-3.018zm6.037-15.896c3.444 0 6.037 3.319 6.037 7.243 0 3.925-2.593 7.244-6.037 7.244s-6.037-3.319-6.037-7.244c0-3.924 2.593-7.243 6.037-7.243zm0 2.897c-1.557 0-3.018 1.87-3.018 4.346 0 2.477 1.46 4.347 3.018 4.347 1.557 0 3.018-1.87 3.018-4.347 0-2.476-1.46-4.346-3.018-4.346zm-12.476-2.897c2.223 0 4.025 1.801 4.025 4.024s-1.802 4.024-4.025 4.024c-2.222 0-4.024-1.801-4.024-4.024s1.802-4.024 4.024-4.024zm0 2.683c-.74 0-1.341.6-1.341 1.341 0 .74.6 1.341 1.341 1.341s1.342-.6 1.342-1.341c0-.74-.6-1.341-1.342-1.341zM262 46c1.153 0 2.087.934 2.087 2.087l-.001 2.272.357.068c1.438.302 2.799.87 4.02 1.668l.29.2 1.61-1.609c.763-.764 1.973-.812 2.792-.143l.159.143c.815.815.815 2.137 0 2.952l-1.61 1.607.201.292c.799 1.221 1.366 2.582 1.668 4.02l.067.356h2.273c1.085 0 1.976.828 2.077 1.886L278 62c0 1.153-.934 2.087-2.087 2.087l-2.273-.001-.067.357c-.302 1.438-.87 2.799-1.668 4.02l-.2.29 1.609 1.61c.764.763.812 1.973.143 2.792l-.143.159c-.815.815-2.137.815-2.952 0l-1.609-1.61-.29.201c-1.221.799-2.582 1.366-4.02 1.668l-.356.067v2.273c0 1.085-.828 1.976-1.886 2.077L262 78c-1.153 0-2.087-.934-2.087-2.087V73.64l-.356-.067c-1.438-.302-2.799-.87-4.02-1.668l-.292-.2-1.607 1.609c-.764.764-1.974.812-2.793.143l-.159-.143c-.815-.815-.815-2.137 0-2.952l1.608-1.609-.2-.29c-.798-1.221-1.365-2.582-1.667-4.02l-.068-.356h-2.272c-1.085 0-1.976-.828-2.077-1.886L246 62c0-1.153.934-2.087 2.087-2.087h2.272l.068-.356c.302-1.438.87-2.799 1.668-4.02l.2-.292-1.609-1.607c-.764-.764-.812-1.974-.143-2.793l.143-.159c.815-.815 2.137-.815 2.952 0l1.607 1.608.292-.2c1.221-.798 2.582-1.365 4.02-1.667l.356-.068v-2.272c0-1.085.828-1.976 1.886-2.077zm0 1.391c-.384 0-.696.312-.696.696l-.001 2.77.057.706-.661.082c-1.873.233-3.627.967-5.101 2.114l-.514.4-.463-.521-1.967-1.968c-.272-.272-.712-.272-.984 0s-.272.712 0 .984l1.965 1.965.563.415-.439.564c-1.147 1.474-1.88 3.228-2.114 5.1l-.08.642-.695-.036h-2.783c-.384 0-.696.312-.696.696 0 .384.312.696.696.696h2.748l.73-.036.08.641c.233 1.873.967 3.627 2.114 5.101l.4.514-.521.463-1.968 1.967c-.272.272-.272.712 0 .984s.712.272.984 0l1.94-1.938.49-.552.514.4c1.474 1.148 3.228 1.882 5.1 2.115l.642.08-.036.695v2.783c0 .384.312.696.696.696.384 0 .696-.312.696-.696V73.13l-.086-.69.691-.085c1.873-.233 3.627-.967 5.101-2.114l.514-.4.463.521 1.967 1.968c.272.272.712.272.984 0s.272-.712 0-.984l-1.968-1.968-.56-.412.439-.564c1.147-1.474 1.88-3.228 2.114-5.1l.08-.642.695.036h2.783c.384 0 .696-.312.696-.696 0-.384-.312-.696-.696-.696h-2.748l-.73.036-.08-.641c-.233-1.873-.967-3.627-2.114-5.101l-.4-.514.521-.463 1.968-1.967c.272-.272.272-.712 0-.984s-.712-.272-.984 0l-1.94 1.938-.49.552-.514-.4c-1.474-1.148-3.228-1.882-5.1-2.115l-.642-.08.036-.695v-2.783c0-.384-.312-.696-.696-.696zM264 63c1.175 0 2 1.392 2 3s-.825 3-2 3-2-1.392-2-3 .825-3 2-3zm0 1.5c-.298 0-.667.623-.667 1.5s.37 1.5.667 1.5c.298 0 .667-.623.667-1.5s-.37-1.5-.667-1.5zm3-7.5c1.711 0 3 1.604 3 3.5s-1.289 3.5-3 3.5-3-1.604-3-3.5 1.289-3.5 3-3.5zm0 1.4c-.774 0-1.5.904-1.5 2.1 0 1.196.726 2.1 1.5 2.1s1.5-.904 1.5-2.1c0-1.196-.726-2.1-1.5-2.1zm-6-1.4c1.105 0 2 .895 2 2s-.895 2-2 2-2-.895-2-2 .895-2 2-2zm0 1.333c-.368 0-.667.299-.667.667 0 .368.299.667.667.667.368 0 .667-.299.667-.667 0-.368-.299-.667-.667-.667zM316 17c1.153 0 2.087.934 2.087 2.087l-.001 2.272.357.068c1.438.302 2.799.87 4.02 1.668l.29.2 1.61-1.609c.763-.764 1.973-.812 2.792-.143l.159.143c.815.815.815 2.137 0 2.952l-1.61 1.607.201.292c.799 1.221 1.366 2.582 1.668 4.02l.067.356h2.273c1.085 0 1.976.828 2.077 1.886L332 33c0 1.153-.934 2.087-2.087 2.087l-2.273-.001-.067.357c-.302 1.438-.87 2.799-1.668 4.02l-.2.29 1.609 1.61c.764.763.812 1.973.143 2.792l-.143.159c-.815.815-2.137.815-2.952 0l-1.609-1.61-.29.201c-1.221.799-2.582 1.366-4.02 1.668l-.356.067v2.273c0 1.085-.828 1.976-1.886 2.077L316 49c-1.153 0-2.087-.934-2.087-2.087V44.64l-.356-.067c-1.438-.302-2.799-.87-4.02-1.668l-.292-.2-1.607 1.609c-.764.764-1.974.812-2.793.143l-.159-.143c-.815-.815-.815-2.137 0-2.952l1.608-1.609-.2-.29c-.798-1.221-1.365-2.582-1.667-4.02l-.068-.356h-2.272c-1.085 0-1.976-.828-2.077-1.886L300 33c0-1.153.934-2.087 2.087-2.087h2.272l.068-.356c.302-1.438.87-2.799 1.668-4.02l.2-.292-1.609-1.607c-.764-.764-.812-1.974-.143-2.793l.143-.159c.815-.815 2.137-.815 2.952 0l1.607 1.608.292-.2c1.221-.798 2.582-1.365 4.02-1.667l.356-.068v-2.272c0-1.085.828-1.976 1.886-2.077zm0 1.391c-.384 0-.696.312-.696.696l-.001 2.77.057.706-.661.082c-1.873.233-3.627.967-5.101 2.114l-.514.4-.463-.521-1.967-1.968c-.272-.272-.712-.272-.984 0s-.272.712 0 .984l1.965 1.965.563.415-.439.564c-1.147 1.474-1.88 3.228-2.114 5.1l-.08.642-.695-.036h-2.783c-.384 0-.696.312-.696.696 0 .384.312.696.696.696h2.748l.73-.036.08.641c.233 1.873.967 3.627 2.114 5.101l.4.514-.521.463-1.968 1.967c-.272.272-.272.712 0 .984s.712.272.984 0l1.94-1.938.49-.552.514.4c1.474 1.148 3.228 1.882 5.1 2.115l.642.08-.036.695v2.783c0 .384.312.696.696.696.384 0 .696-.312.696-.696V44.13l-.086-.69.691-.085c1.873-.233 3.627-.967 5.101-2.114l.514-.4.463.521 1.967 1.968c.272.272.712.272.984 0s.272-.712 0-.984l-1.968-1.968-.56-.412.439-.564c1.147-1.474 1.88-3.228 2.114-5.1l.08-.642.695.036h2.783c.384 0 .696-.312.696-.696 0-.384-.312-.696-.696-.696h-2.748l-.73.036-.08-.641c-.233-1.873-.967-3.627-2.114-5.101l-.4-.514.521-.463 1.968-1.967c.272-.272.272-.712 0-.984s-.712-.272-.984 0l-1.94 1.938-.49.552-.514-.4c-1.474-1.148-3.228-1.882-5.1-2.115l-.642-.08.036-.695v-2.783c0-.384-.312-.696-.696-.696zM318 34c1.175 0 2 1.392 2 3s-.825 3-2 3-2-1.392-2-3 .825-3 2-3zm0 1.5c-.298 0-.667.623-.667 1.5s.37 1.5.667 1.5c.298 0 .667-.623.667-1.5s-.37-1.5-.667-1.5zm3-7.5c1.711 0 3 1.604 3 3.5s-1.289 3.5-3 3.5-3-1.604-3-3.5 1.289-3.5 3-3.5zm0 1.4c-.774 0-1.5.904-1.5 2.1 0 1.196.726 2.1 1.5 2.1s1.5-.904 1.5-2.1c0-1.196-.726-2.1-1.5-2.1zm-6-1.4c1.105 0 2 .895 2 2s-.895 2-2 2-2-.895-2-2 .895-2 2-2zm0 1.333c-.368 0-.667.299-.667.667 0 .368.299.667.667.667.368 0 .667-.299.667-.667 0-.368-.299-.667-.667-.667zM153 75c1.153 0 2.087.934 2.087 2.087l-.001 2.272.357.068c1.438.302 2.799.87 4.02 1.668l.29.2 1.61-1.609c.763-.764 1.973-.812 2.792-.143l.159.143c.815.815.815 2.137 0 2.952l-1.61 1.607.201.292c.799 1.221 1.366 2.582 1.668 4.02l.067.356h2.273c1.085 0 1.976.828 2.077 1.886L169 91c0 1.153-.934 2.087-2.087 2.087l-2.273-.001-.067.357c-.302 1.438-.87 2.799-1.668 4.02l-.2.29 1.609 1.61c.764.763.812 1.973.143 2.792l-.143.159c-.815.815-2.137.815-2.952 0l-1.609-1.61-.29.201c-1.221.799-2.582 1.366-4.02 1.668l-.356.067v2.273c0 1.085-.828 1.976-1.886 2.077L153 107c-1.153 0-2.087-.934-2.087-2.087v-2.273l-.356-.067c-1.438-.302-2.799-.87-4.02-1.668l-.292-.2-1.607 1.609c-.764.764-1.974.812-2.793.143l-.159-.143c-.815-.815-.815-2.137 0-2.952l1.608-1.609-.2-.29c-.798-1.221-1.365-2.582-1.667-4.02l-.068-.356h-2.272c-1.085 0-1.976-.828-2.077-1.886L137 91c0-1.153.934-2.087 2.087-2.087h2.272l.068-.356c.302-1.438.87-2.799 1.668-4.02l.2-.292-1.609-1.607c-.764-.764-.812-1.974-.143-2.793l.143-.159c.815-.815 2.137-.815 2.952 0l1.607 1.608.292-.2c1.221-.798 2.582-1.365 4.02-1.667l.356-.068v-2.272c0-1.085.828-1.976 1.886-2.077zm0 1.391c-.384 0-.696.312-.696.696l-.001 2.77.057.706-.661.082c-1.873.233-3.627.967-5.101 2.114l-.514.4-.463-.521-1.967-1.968c-.272-.272-.712-.272-.984 0s-.272.712 0 .984l1.965 1.965.563.415-.439.564c-1.147 1.474-1.88 3.228-2.114 5.1l-.08.642-.695-.036h-2.783c-.384 0-.696.312-.696.696 0 .384.312.696.696.696h2.748l.73-.036.08.641c.233 1.873.967 3.627 2.114 5.101l.4.514-.521.463-1.968 1.967c-.272.272-.272.712 0 .984s.712.272.984 0l1.94-1.938.49-.552.514.4c1.474 1.148 3.228 1.882 5.1 2.115l.642.08-.036.695v2.783c0 .384.312.696.696.696.384 0 .696-.312.696-.696v-2.783l-.086-.69.691-.085c1.873-.233 3.627-.967 5.101-2.114l.514-.4.463.521 1.967 1.968c.272.272.712.272.984 0s.272-.712 0-.984l-1.968-1.968-.56-.412.439-.564c1.147-1.474 1.88-3.228 2.114-5.1l.08-.642.695.036h2.783c.384 0 .696-.312.696-.696 0-.384-.312-.696-.696-.696h-2.748l-.73.036-.08-.641c-.233-1.873-.967-3.627-2.114-5.101l-.4-.514.521-.463 1.968-1.967c.272-.272.272-.712 0-.984s-.712-.272-.984 0l-1.94 1.938-.49.552-.514-.4c-1.474-1.148-3.228-1.882-5.1-2.115l-.642-.08.036-.695v-2.783c0-.384-.312-.696-.696-.696zM155 92c1.175 0 2 1.392 2 3s-.825 3-2 3-2-1.392-2-3 .825-3 2-3zm0 1.5c-.298 0-.667.623-.667 1.5s.37 1.5.667 1.5c.298 0 .667-.623.667-1.5s-.37-1.5-.667-1.5zm3-7.5c1.711 0 3 1.604 3 3.5s-1.289 3.5-3 3.5-3-1.604-3-3.5 1.289-3.5 3-3.5zm0 1.4c-.774 0-1.5.904-1.5 2.1 0 1.196.726 2.1 1.5 2.1s1.5-.904 1.5-2.1c0-1.196-.726-2.1-1.5-2.1zm-6-1.4c1.105 0 2 .895 2 2s-.895 2-2 2-2-.895-2-2 .895-2 2-2zm0 1.333c-.368 0-.667.299-.667.667 0 .368.299.667.667.667.368 0 .667-.299.667-.667 0-.368-.299-.667-.667-.667zM220 97c1.153 0 2.087.934 2.087 2.087l-.001 2.272.357.068c1.438.302 2.799.87 4.02 1.668l.29.2 1.61-1.609c.763-.764 1.973-.812 2.792-.143l.159.143c.815.815.815 2.137 0 2.952l-1.61 1.607.201.292c.799 1.221 1.366 2.582 1.668 4.02l.067.356h2.273c1.085 0 1.976.828 2.077 1.886l.01.201c0 1.153-.934 2.087-2.087 2.087l-2.273-.001-.067.357c-.302 1.438-.87 2.799-1.668 4.02l-.2.29 1.609 1.61c.764.763.812 1.973.143 2.792l-.143.159c-.815.815-2.137.815-2.952 0l-1.609-1.61-.29.201c-1.221.799-2.582 1.366-4.02 1.668l-.356.067v2.273c0 1.085-.828 1.976-1.886 2.077L220 129c-1.153 0-2.087-.934-2.087-2.087v-2.273l-.356-.067c-1.438-.302-2.799-.87-4.02-1.668l-.292-.2-1.607 1.609c-.764.764-1.974.812-2.793.143l-.159-.143c-.815-.815-.815-2.137 0-2.952l1.608-1.609-.2-.29c-.798-1.221-1.365-2.582-1.667-4.02l-.068-.356h-2.272c-1.085 0-1.976-.828-2.077-1.886L204 113c0-1.153.934-2.087 2.087-2.087h2.272l.068-.356c.302-1.438.87-2.799 1.668-4.02l.2-.292-1.609-1.607c-.764-.764-.812-1.974-.143-2.793l.143-.159c.815-.815 2.137-.815 2.952 0l1.607 1.608.292-.2c1.221-.798 2.582-1.365 4.02-1.667l.356-.068v-2.272c0-1.085.828-1.976 1.886-2.077zm0 1.391c-.384 0-.696.312-.696.696l-.001 2.77.057.706-.661.082c-1.873.233-3.627.967-5.101 2.114l-.514.4-.463-.521-1.967-1.968c-.272-.272-.712-.272-.984 0s-.272.712 0 .984l1.965 1.965.563.415-.439.564c-1.147 1.474-1.88 3.228-2.114 5.1l-.08.642-.695-.036h-2.783c-.384 0-.696.312-.696.696 0 .384.312.696.696.696h2.748l.73-.036.08.641c.233 1.873.967 3.627 2.114 5.101l.4.514-.521.463-1.968 1.967c-.272.272-.272.712 0 .984s.712.272.984 0l1.94-1.938.49-.552.514.4c1.474 1.148 3.228 1.882 5.1 2.115l.642.08-.036.695v2.783c0 .384.312.696.696.696.384 0 .696-.312.696-.696v-2.783l-.086-.69.691-.085c1.873-.233 3.627-.967 5.101-2.114l.514-.4.463.521 1.967 1.968c.272.272.712.272.984 0s.272-.712 0-.984l-1.968-1.968-.56-.412.439-.564c1.147-1.474 1.88-3.228 2.114-5.1l.08-.642.695.036h2.783c.384 0 .696-.312.696-.696 0-.384-.312-.696-.696-.696h-2.748l-.73.036-.08-.641c-.233-1.873-.967-3.627-2.114-5.101l-.4-.514.521-.463 1.968-1.967c.272-.272.272-.712 0-.984s-.712-.272-.984 0l-1.94 1.938-.49.552-.514-.4c-1.474-1.148-3.228-1.882-5.1-2.115l-.642-.08.036-.695v-2.783c0-.384-.312-.696-.696-.696zM222 114c1.175 0 2 1.392 2 3s-.825 3-2 3-2-1.392-2-3 .825-3 2-3zm0 1.5c-.298 0-.667.623-.667 1.5s.37 1.5.667 1.5c.298 0 .667-.623.667-1.5s-.37-1.5-.667-1.5zm3-7.5c1.711 0 3 1.604 3 3.5s-1.289 3.5-3 3.5-3-1.604-3-3.5 1.289-3.5 3-3.5zm0 1.4c-.774 0-1.5.904-1.5 2.1 0 1.196.726 2.1 1.5 2.1s1.5-.904 1.5-2.1c0-1.196-.726-2.1-1.5-2.1zm-6-1.4c1.105 0 2 .895 2 2s-.895 2-2 2-2-.895-2-2 .895-2 2-2zm0 1.333c-.368 0-.667.299-.667.667 0 .368.299.667.667.667.368 0 .667-.299.667-.667 0-.368-.299-.667-.667-.667zM96 33c.936 0 1.696.76 1.696 1.696l-.001 1.846.29.055c1.168.245 2.274.706 3.267 1.355l.235.162 1.307-1.306c.621-.621 1.604-.66 2.27-.117l.128.117c.663.662.663 1.735 0 2.398l-1.307 1.306.163.236c.649.993 1.11 2.099 1.355 3.267l.054.29h1.847c.882 0 1.606.672 1.688 1.532L109 46c0 .936-.76 1.696-1.696 1.696l-1.847-.001-.054.29c-.245 1.168-.706 2.274-1.355 3.267l-.163.235 1.307 1.307c.621.621.66 1.604.117 2.27l-.117.128c-.662.663-1.735.663-2.398 0l-1.307-1.307-.235.163c-.993.649-2.099 1.11-3.267 1.355l-.29.054v1.847c0 .882-.672 1.606-1.532 1.688L96 59c-.936 0-1.696-.76-1.696-1.696v-1.847l-.289-.054c-1.168-.245-2.274-.706-3.267-1.355l-.236-.163-1.306 1.307c-.621.621-1.604.66-2.27.117l-.128-.117c-.663-.662-.663-1.735 0-2.398l1.306-1.307-.162-.235c-.649-.993-1.11-2.099-1.355-3.267l-.055-.29h-1.846c-.882 0-1.606-.672-1.688-1.532L83 46c0-.936.76-1.696 1.696-1.696h1.846l.055-.289c.245-1.168.706-2.274 1.355-3.267l.162-.236-1.306-1.306c-.621-.621-.66-1.604-.117-2.27l.117-.128c.662-.663 1.735-.663 2.398 0l1.306 1.306.236-.162c.993-.649 2.099-1.11 3.267-1.355l.29-.055v-1.846c0-.882.672-1.606 1.532-1.688zm0 1.13c-.312 0-.565.253-.565.565l-.001 2.252.046.573-.537.067c-1.522.19-2.947.786-4.145 1.717l-.418.326-.375-.424-1.599-1.6c-.22-.22-.578-.22-.8 0-.22.222-.22.58 0 .8l1.598 1.597.457.337-.357.458c-.931 1.198-1.528 2.623-1.717 4.145l-.065.52-.565-.028h-2.261c-.313 0-.566.253-.566.565 0 .312.253.565.566.565h2.232l.594-.029.065.521c.19 1.522.786 2.947 1.717 4.145l.326.418-.424.375-1.6 1.599c-.22.22-.22.578 0 .8.222.22.58.22.8 0l1.576-1.575.398-.449.418.326c1.198.931 2.623 1.528 4.145 1.717l.52.065-.028.565v2.261c0 .313.253.566.565.566.312 0 .565-.253.565-.566v-2.26l-.069-.561.561-.07c1.522-.19 2.947-.786 4.145-1.717l.418-.326.375.424 1.599 1.6c.22.22.578.22.8 0 .22-.222.22-.58-.001-.8l-1.6-1.6-.454-.334.357-.458c.931-1.198 1.528-2.623 1.717-4.145l.065-.52.565.028h2.261c.313 0 .566-.253.566-.565 0-.312-.253-.565-.566-.565h-2.232l-.594.029-.065-.521c-.19-1.522-.786-2.947-1.717-4.145l-.326-.418.424-.375 1.6-1.599c.22-.22.22-.578-.001-.8-.22-.22-.579-.22-.8 0l-1.575 1.575-.398.449-.418-.326c-1.198-.931-2.623-1.528-4.145-1.717l-.52-.065.028-.565v-2.261c0-.313-.253-.566-.565-.566zm1.625 12.682c.955 0 1.625 1.132 1.625 2.438 0 1.306-.67 2.438-1.625 2.438S96 50.556 96 49.25c0-1.306.67-2.438 1.625-2.438zm0 1.22c-.242 0-.542.505-.542 1.218s.3 1.219.542 1.219c.242 0 .542-.506.542-1.219 0-.713-.3-1.219-.542-1.219zm2.438-6.094c1.39 0 2.437 1.302 2.437 2.843s-1.047 2.844-2.438 2.844c-1.39 0-2.437-1.303-2.437-2.844 0-1.54 1.047-2.843 2.438-2.843zm0 1.137c-.63 0-1.22.734-1.22 1.706s.59 1.706 1.22 1.706c.628 0 1.218-.734 1.218-1.706s-.59-1.706-1.219-1.706zm-4.876-1.138c.898 0 1.626.728 1.626 1.626 0 .897-.728 1.624-1.626 1.624-.897 0-1.624-.727-1.624-1.624 0-.898.727-1.626 1.624-1.626zm0 1.084c-.299 0-.541.242-.541.541 0 .3.242.542.541.542.3 0 .542-.242.542-.541 0-.3-.242-.542-.541-.542z" transform="translate(-33 -13)"/>
            </g>
        </g>
    </g>
</svg>
