<svg xmlns="http://www.w3.org/2000/svg" xmlns:xlink="http://www.w3.org/1999/xlink" width="360" height="88"><defs><path id="a" d="M0 0h360v180H0z"/></defs><g fill="none" fill-rule="evenodd"><mask id="b" fill="#fff"><use xlink:href="#a"/></mask><use fill="#D8D8D8" fill-opacity="0" xlink:href="#a"/><g fill="#FFF" mask="url(#b)" opacity=".1"><path d="M69 98a7 7 0 017 7v7.7l1.2.2c4.9 1 9.5 3 13.6 5.7l1 .6 5.4-5.4a7 7 0 019.4-.5l.6.5a7 7 0 010 10l-5.4 5.4.6 1c2.7 4.1 4.6 8.7 5.7 13.6l.2 1.2h7.7a7 7 0 017 6.3v.7a7 7 0 01-7 7h-7.7l-.2 1.2c-1 4.9-3 9.5-5.7 13.6l-.6 1 5.4 5.4a7 7 0 01.5 9.4l-.5.6a7 7 0 01-10 0l-5.4-5.4-1 .6a39.7 39.7 0 01-13.6 5.7l-1.2.2v7.7a7 7 0 01-6.3 7H69a7 7 0 01-7-7v-7.7l-1.2-.2c-4.9-1-9.5-3-13.6-5.7l-1-.6-5.4 5.4a7 7 0 01-9.4.5l-.6-.5a7 7 0 010-10l5.4-5.4-.6-1a39.7 39.7 0 01-5.7-13.6l-.2-1.2H22a7 7 0 01-7-6.3v-.7a7 7 0 017-7h7.7l.2-1.2c1-4.9 3-9.5 5.7-13.6l.6-1-5.4-5.4a7 7 0 01-.5-9.4l.5-.6a7 7 0 0110 0l5.4 5.4 1-.6c4.1-2.7 8.7-4.6 13.6-5.7l1.2-.2V105a7 7 0 016.3-7zm0 4.7c-1.3 0-2.3 1-2.3 2.3v9.4l.1 2.4-2.2.3a35 35 0 00-17.2 7l-1.7 1.4-1.6-1.7-6.6-6.7a2.3 2.3 0 10-3.4 3.4l6.7 6.6 1.9 1.4-1.5 1.9a35 35 0 00-7.1 17.2l-.3 2.2-2.4-.1H22a2.3 2.3 0 000 4.6h11.8l.3 2a35 35 0 007 17.3l1.4 1.7-1.7 1.6-6.7 6.6a2.3 2.3 0 103.4 3.4l6.5-6.6 1.7-1.8 1.7 1.3a35 35 0 0017.2 7.1l2.2.3-.1 2.4v9.4a2.3 2.3 0 004.6 0v-9.4l-.2-2.4 2.3-.3a35 35 0 0017.2-7l1.7-1.4 1.6 1.7 6.6 6.7a2.3 2.3 0 103.4-3.4l-6.7-6.6-1.9-1.4 1.5-1.9a35 35 0 007.1-17.2l.3-2.2 2.4.1h9.4a2.3 2.3 0 000-4.6h-11.8l-.3-2a35 35 0 00-7-17.3l-1.4-1.7 1.7-1.6 6.7-6.6a2.3 2.3 0 10-3.4-3.4l-6.5 6.6-1.7 1.8-1.7-1.3a35 35 0 00-17.2-7.1l-2.2-.3.1-2.4V105c0-1.3-1-2.3-2.3-2.3zm6.5 53.3c3.8 0 6.5 4.6 6.5 10s-2.7 10-6.5 10-6.5-4.6-6.5-10 2.7-10 6.5-10zm0 5c-1 0-2.2 2-2.2 5s1.2 5 2.2 5c1 0 2.2-2 2.2-5s-1.2-5-2.2-5zM86 136c5.7 0 10 5.3 10 11.5S91.7 159 86 159s-10-5.3-10-11.5S80.3 136 86 136zm0 4.6c-2.6 0-5 3-5 6.9 0 4 2.4 6.9 5 6.9s5-3 5-6.9c0-4-2.4-6.9-5-6.9zM64.5 135a6.5 6.5 0 110 13 6.5 6.5 0 010-13zm0 4.3a2.2 2.2 0 100 4.4 2.2 2.2 0 000-4.4zM299 65a7 7 0 017 7v7.7l1.2.2c4.9 1 9.5 3 13.6 5.7l1 .6 5.4-5.4a7 7 0 019.4-.5l.6.5a7 7 0 010 10l-5.4 5.4.6 1c2.7 4.1 4.6 8.7 5.7 13.6l.2 1.2h7.7a7 7 0 017 6.3v.7a7 7 0 01-7 7h-7.7l-.2 1.2c-1 4.9-3 9.5-5.7 13.6l-.6 1 5.4 5.4a7 7 0 01.5 9.4l-.5.6a7 7 0 01-10 0l-5.4-5.4-1 .6a39.7 39.7 0 01-13.6 5.7l-1.2.2v7.7a7 7 0 01-6.3 7h-.7a7 7 0 01-7-7v-7.7l-1.2-.2c-4.9-1-9.5-3-13.6-5.7l-1-.6-5.4 5.4a7 7 0 01-9.4.5l-.6-.5a7 7 0 010-10l5.4-5.4-.6-1a39.7 39.7 0 01-5.7-13.6l-.2-1.2H252a7 7 0 01-7-6.3v-.7a7 7 0 017-7h7.7l.2-1.2c1-4.9 3-9.5 5.7-13.6l.6-1-5.4-5.4a7 7 0 01-.5-9.4l.5-.6a7 7 0 0110 0l5.4 5.4 1-.6c4.1-2.7 8.7-4.6 13.6-5.7l1.2-.2V72a7 7 0 016.3-7zm0 4.7c-1.3 0-2.3 1-2.3 2.3v9.4l.1 2.4-2.2.3a35 35 0 00-17.2 7l-1.7 1.4-1.6-1.7-6.6-6.7a2.3 2.3 0 10-3.4 3.4l6.7 6.6 1.9 1.4-1.5 1.9a35 35 0 00-7.1 17.2l-.3 2.2-2.4-.1H252a2.3 2.3 0 000 4.6h11.8l.3 2a35 35 0 007 17.3l1.4 1.7-1.7 1.6-6.7 6.6a2.3 2.3 0 103.4 3.4l6.5-6.6 1.7-1.8 1.7 1.3a35 35 0 0017.2 7.1l2.2.3-.1 2.4v9.4a2.3 2.3 0 004.6 0v-9.4l-.2-2.4 2.3-.3a35 35 0 0017.2-7l1.7-1.4 1.6 1.7 6.6 6.7a2.3 2.3 0 103.4-3.4l-6.7-6.6-1.9-1.4 1.5-1.9a35 35 0 007.1-17.2l.3-2.2 2.4.1h9.4a2.3 2.3 0 000-4.6h-11.8l-.3-2a35 35 0 00-7-17.3l-1.4-1.7 1.7-1.6 6.7-6.6a2.3 2.3 0 10-3.4-3.4l-6.5 6.6-1.7 1.8-1.7-1.3a35 35 0 00-17.2-7.1l-2.2-.3.1-2.4V72c0-1.3-1-2.3-2.3-2.3zm6.5 53.3c3.8 0 6.5 4.6 6.5 10s-2.7 10-6.5 10-6.5-4.6-6.5-10 2.7-10 6.5-10zm0 5c-1 0-2.2 2-2.2 5s1.2 5 2.2 5c1 0 2.2-2 2.2-5s-1.2-5-2.2-5zm10.5-25c5.7 0 10 5.3 10 11.5s-4.3 11.5-10 11.5-10-5.3-10-11.5 4.3-11.5 10-11.5zm0 4.6c-2.6 0-5 3-5 6.9 0 4 2.4 6.9 5 6.9s5-3 5-6.9c0-4-2.4-6.9-5-6.9zm-21.5-5.6a6.5 6.5 0 110 13 6.5 6.5 0 010-13zm0 4.3a2.2 2.2 0 100 4.4 2.2 2.2 0 000-4.4zM199 135c2.4 0 4.3 2 4.3 4.3v4.7l.7.1c3 .7 5.8 1.8 8.3 3.5l.6.4 3.3-3.3c1.6-1.6 4.1-1.7 5.8-.3l.3.3a4.3 4.3 0 010 6l-3.3 3.4.4.6c1.7 2.5 2.8 5.3 3.5 8.3l.1.7h4.7c2.2 0 4 1.7 4.3 3.9v.4c0 2.4-2 4.3-4.3 4.3H223l-.1.7c-.7 3-1.8 5.8-3.5 8.3l-.4.6 3.3 3.3c1.6 1.6 1.7 4.1.3 5.8l-.3.3a4.3 4.3 0 01-6 0l-3.4-3.3-.6.4a24.2 24.2 0 01-8.3 3.5l-.7.1v4.7c0 2.2-1.7 4-3.9 4.3h-.4c-2.4 0-4.3-2-4.3-4.3V192l-.7-.1c-3-.7-5.8-1.8-8.3-3.5l-.6-.4-3.3 3.3a4.3 4.3 0 01-5.8.3l-.3-.3a4.3 4.3 0 010-6l3.3-3.4-.4-.6a24.2 24.2 0 01-3.5-8.3l-.1-.7h-4.7c-2.2 0-4-1.7-4.3-3.9v-.4c0-2.4 2-4.3 4.3-4.3h4.7l.1-.7c.7-3 1.8-5.8 3.5-8.3l.4-.6-3.3-3.3a4.3 4.3 0 01-.3-5.8l.3-.3a4.3 4.3 0 016 0l3.4 3.3.6-.4c2.5-1.7 5.3-2.8 8.3-3.5l.7-.1v-4.7c0-2.2 1.7-4 3.9-4.3zm0 2.9c-.8 0-1.4.6-1.4 1.4v7.2l-1.3.1c-3.8.5-7.5 2-10.5 4.4l-1 .8-1-1-4-4.1a1.4 1.4 0 00-2.1 2l4 4 1.2 1-.9 1.1c-2.4 3-3.9 6.7-4.4 10.5l-.1 1.3h-7.2a1.4 1.4 0 000 2.8h7.2l.1 1.3c.5 3.8 2 7.5 4.4 10.5l.8 1-1 1-4.1 4a1.4 1.4 0 002 2.1l4-4 1-1.1 1.1.8c3 2.4 6.7 3.9 10.5 4.4l1.3.1v7.2a1.4 1.4 0 002.8 0V191l-.1-1.5 1.4-.1c3.8-.5 7.5-2 10.5-4.4l1-.8 1 1 4 4.1a1.4 1.4 0 002.1-2l-4-4-1.2-1 .9-1.1c2.4-3 3.9-6.7 4.4-10.5l.1-1.3h7.2a1.4 1.4 0 000-2.8h-7.2l-.1-1.3c-.5-3.8-2-7.5-4.4-10.5l-.8-1 1-1 4.1-4a1.4 1.4 0 00-2-2.1l-4 4-1 1.1-1.1-.8c-3-2.4-6.7-3.9-10.5-4.4l-1.3-.1v-7.2c0-.8-.6-1.4-1.4-1.4zm4 32.5c2.4 0 4 2.8 4 6 0 3.3-1.6 6-4 6-2.3 0-4-2.7-4-6 0-3.2 1.7-6 4-6zm0 3c-.6 0-1.3 1.3-1.3 3 0 1.8.7 3 1.3 3 .6 0 1.4-1.2 1.4-3 0-1.7-.8-3-1.4-3zm6-15.9c3.5 0 6.1 3.4 6.1 7.3 0 4-2.6 7.2-6 7.2s-6-3.3-6-7.2c0-4 2.5-7.3 6-7.3zm0 3c-1.5 0-3 1.8-3 4.3s1.5 4.3 3 4.3c1.6 0 3-1.8 3-4.3s-1.4-4.4-3-4.4zm-12.4-3a4 4 0 110 8 4 4 0 010-8zm0 2.7a1.3 1.3 0 100 2.7 1.3 1.3 0 000-2.7zM147-13c2.4 0 4.3 2 4.3 4.3V-4l.7.1c3 .7 5.8 1.8 8.3 3.5l.6.4 3.3-3.3c1.6-1.6 4.1-1.7 5.8-.3l.3.3a4.3 4.3 0 010 6L167 6.2l.4.6c1.7 2.5 2.8 5.3 3.5 8.3l.1.7h4.7c2.2 0 4 1.7 4.3 3.9v.4c0 2.4-2 4.3-4.3 4.3H171l-.1.7c-.7 3-1.8 5.8-3.5 8.3l-.4.6 3.3 3.3c1.6 1.6 1.7 4.1.3 5.8l-.3.3a4.3 4.3 0 01-6 0l-3.4-3.3-.6.4A24.2 24.2 0 01152 44l-.7.1v4.7c0 2.2-1.7 4-3.9 4.3h-.4c-2.4 0-4.3-2-4.3-4.3V44l-.7-.1c-3-.7-5.8-1.8-8.3-3.5l-.6-.4-3.3 3.3a4.3 4.3 0 01-5.8.3l-.3-.3a4.3 4.3 0 010-6l3.3-3.4-.4-.6A24.2 24.2 0 01123 25l-.1-.7h-4.7c-2.2 0-4-1.7-4.3-3.9V20c0-2.4 2-4.3 4.3-4.3h4.7l.1-.7c.7-3 1.8-5.8 3.5-8.3l.4-.6-3.3-3.3a4.3 4.3 0 01-.3-5.8l.3-.3a4.3 4.3 0 016 0l3.4 3.3.6-.4c2.5-1.7 5.3-2.8 8.3-3.5l.7-.1v-4.7c0-2.2 1.7-4 3.9-4.3zm0 2.9c-.8 0-1.4.6-1.4 1.4v7.2l-1.3.1c-3.8.5-7.5 2-10.5 4.4l-1 .8-1-1-4-4.1a1.4 1.4 0 00-2.1 2l4 4 1.2 1-.9 1.1c-2.4 3-3.9 6.7-4.4 10.5l-.1 1.3h-7.2a1.4 1.4 0 000 2.8h7.2l.1 1.3c.5 3.8 2 7.5 4.4 10.5l.8 1-1 1-4.1 4a1.4 1.4 0 002 2.1l4-4 1-1.1 1.1.8c3 2.4 6.7 3.9 10.5 4.4l1.3.1v7.2a1.4 1.4 0 002.8 0V43l-.1-1.5 1.4-.1c3.8-.5 7.5-2 10.5-4.4l1-.8 1 1 4 4.1a1.4 1.4 0 002.1-2l-4-4-1.2-1 .9-1.1c2.4-3 3.9-6.7 4.4-10.5l.1-1.3h7.2a1.4 1.4 0 000-2.8h-7.2l-.1-1.3c-.5-3.8-2-7.5-4.4-10.5l-.8-1 1-1 4.1-4a1.4 1.4 0 00-2-2.1l-4 4-1 1.1-1.1-.8c-3-2.4-6.7-3.9-10.5-4.4l-1.3-.1v-7.2c0-.8-.6-1.4-1.4-1.4zm4 32.5c2.4 0 4 2.8 4 6 0 3.3-1.6 6-4 6-2.3 0-4-2.7-4-6 0-3.2 1.7-6 4-6zm0 3c-.6 0-1.3 1.3-1.3 3 0 1.8.7 3 1.3 3 .6 0 1.4-1.2 1.4-3 0-1.7-.8-3-1.4-3zm6-15.9c3.5 0 6.1 3.4 6.1 7.3 0 4-2.6 7.2-6 7.2s-6-3.3-6-7.2c0-4 2.5-7.3 6-7.3zm0 3c-1.5 0-3 1.8-3 4.3s1.5 4.3 3 4.3c1.6 0 3-1.8 3-4.3s-1.4-4.4-3-4.4zm-12.4-3a4 4 0 110 8 4 4 0 010-8zm0 2.7a1.3 1.3 0 100 2.7 1.3 1.3 0 000-2.7zM0 12c2.4 0 4.3 2 4.3 4.3V21l.7.1c3 .7 5.8 1.8 8.3 3.5l.6.4 3.3-3.3c1.6-1.6 4.1-1.7 5.8-.3l.3.3a4.3 4.3 0 010 6L20 31.2l.4.6c1.7 2.5 2.8 5.3 3.5 8.3l.1.7h4.7c2.2 0 4 1.7 4.3 3.9v.4c0 2.4-2 4.3-4.3 4.3H24l-.1.7c-.7 3-1.8 5.8-3.5 8.3l-.4.6 3.3 3.3c1.6 1.6 1.7 4.1.3 5.8l-.3.3a4.3 4.3 0 01-6 0L13.8 65l-.6.4A24.2 24.2 0 015 69l-.7.1v4.7c0 2.2-1.7 4-3.9 4.3H0c-2.4 0-4.3-2-4.3-4.3V69L-5 69c-3-.7-5.8-1.8-8.3-3.5l-.6-.4-3.3 3.3a4.3 4.3 0 01-5.8.3l-.3-.3a4.3 4.3 0 010-6l3.3-3.4-.4-.6A24.2 24.2 0 01-24 50l-.1-.7h-4.7c-2.2 0-4-1.7-4.3-3.9V45c0-2.4 2-4.3 4.3-4.3h4.7l.1-.7c.7-3 1.8-5.8 3.5-8.3l.4-.6-3.3-3.3a4.3 4.3 0 01-.3-5.8l.3-.3a4.3 4.3 0 016 0l3.4 3.3.6-.4C-10.8 22.9-8 21.8-5 21l.7-.1v-4.7c0-2.2 1.7-4 3.9-4.3zm0 2.9c-.8 0-1.4.6-1.4 1.4v7.2l-1.3.1c-3.8.5-7.5 2-10.5 4.4l-1 .8-1-1-4-4.1a1.4 1.4 0 00-2.1 2l4 4 1.2 1-.9 1.1c-2.4 3-3.9 6.7-4.4 10.5l-.1 1.3h-7.2a1.4 1.4 0 000 2.8h7.2l.1 1.3c.5 3.8 2 7.5 4.4 10.5l.8 1-1 1-4.1 4a1.4 1.4 0 002 2.1l4-4 1-1.1 1.1.8c3 2.4 6.7 3.9 10.5 4.4l1.3.1v7.2a1.4 1.4 0 002.8 0V68l-.1-1.5 1.4-.1c3.8-.5 7.5-2 10.5-4.4l1-.8 1 1 4 4.1a1.4 1.4 0 002.1-2l-4-4-1.2-1 .9-1.1c2.4-3 3.9-6.7 4.4-10.5l.1-1.3h7.2a1.4 1.4 0 000-2.8h-7.2l-.1-1.3c-.5-3.8-2-7.5-4.4-10.5l-.8-1 1-1 4.1-4a1.4 1.4 0 00-2-2.1l-4 4-1 1.1-1.1-.8c-3-2.4-6.7-3.9-10.5-4.4l-1.3-.1v-7.2c0-.8-.6-1.4-1.4-1.4zm4 32.5c2.4 0 4 2.8 4 6 0 3.3-1.6 6-4 6-2.3 0-4-2.7-4-6 0-3.2 1.7-6 4-6zm0 3c-.6 0-1.3 1.3-1.3 3 0 1.8.7 3 1.3 3 .6 0 1.4-1.2 1.4-3 0-1.7-.8-3-1.4-3zm6-15.9c3.5 0 6.1 3.4 6.1 7.3 0 4-2.6 7.2-6 7.2s-6-3.3-6-7.2c0-4 2.5-7.3 6-7.3zm0 3c-1.5 0-3 1.8-3 4.3S8.5 46 10 46c1.6 0 3-1.8 3-4.3s-1.4-4.4-3-4.4zm-12.4-3a4 4 0 110 8 4 4 0 010-8zm0 2.7a1.3 1.3 0 100 2.7 1.3 1.3 0 000-2.7zM360 12c2.4 0 4.3 2 4.3 4.3V21l.7.1c3 .7 5.8 1.8 8.3 3.5l.6.4 3.3-3.3c1.6-1.6 4.1-1.7 5.8-.3l.3.3a4.3 4.3 0 010 6l-3.3 3.4.4.6c1.7 2.5 2.8 5.3 3.5 8.3l.1.7h4.7c2.2 0 4 1.7 4.3 3.9v.4c0 2.4-2 4.3-4.3 4.3H384l-.1.7c-.7 3-1.8 5.8-3.5 8.3l-.4.6 3.3 3.3c1.6 1.6 1.7 4.1.3 5.8l-.3.3a4.3 4.3 0 01-6 0l-3.4-3.3-.6.4A24.2 24.2 0 01365 69l-.7.1v4.7c0 2.2-1.7 4-3.9 4.3h-.4c-2.4 0-4.3-2-4.3-4.3V69l-.7-.1c-3-.7-5.8-1.8-8.3-3.5l-.6-.4-3.3 3.3a4.3 4.3 0 01-5.8.3l-.3-.3a4.3 4.3 0 010-6l3.3-3.4-.4-.6A24.2 24.2 0 01336 50l-.1-.7h-4.7c-2.2 0-4-1.7-4.3-3.9V45c0-2.4 2-4.3 4.3-4.3h4.7l.1-.7c.7-3 1.8-5.8 3.5-8.3l.4-.6-3.3-3.3a4.3 4.3 0 01-.3-5.8l.3-.3a4.3 4.3 0 016 0l3.4 3.3.6-.4c2.5-1.7 5.3-2.8 8.3-3.5l.7-.1v-4.7c0-2.2 1.7-4 3.9-4.3zm0 2.9c-.8 0-1.4.6-1.4 1.4v7.2l-1.3.1c-3.8.5-7.5 2-10.5 4.4l-1 .8-1-1-4-4.1a1.4 1.4 0 00-2.1 2l4 4 1.2 1-.9 1.1c-2.4 3-3.9 6.7-4.4 10.5l-.1 1.3h-7.2a1.4 1.4 0 000 2.8h7.2l.1 1.3c.5 3.8 2 7.5 4.4 10.5l.8 1-1 1-4.1 4a1.4 1.4 0 002 2.1l4-4 1-1.1 1.1.8c3 2.4 6.7 3.9 10.5 4.4l1.3.1v7.2a1.4 1.4 0 002.8 0V68l-.1-1.5 1.4-.1c3.8-.5 7.5-2 10.5-4.4l1-.8 1 1 4 4.1a1.4 1.4 0 002.1-2l-4-4-1.2-1 .9-1.1c2.4-3 3.9-6.7 4.4-10.5l.1-1.3h7.2a1.4 1.4 0 000-2.8h-7.2l-.1-1.3c-.5-3.8-2-7.5-4.4-10.5l-.8-1 1-1 4.1-4a1.4 1.4 0 00-2-2.1l-4 4-1 1.1-1.1-.8c-3-2.4-6.7-3.9-10.5-4.4l-1.3-.1v-7.2c0-.8-.6-1.4-1.4-1.4zm4 32.5c2.4 0 4 2.8 4 6 0 3.3-1.6 6-4 6-2.3 0-4-2.7-4-6 0-3.2 1.7-6 4-6zm0 3c-.6 0-1.3 1.3-1.3 3 0 1.8.7 3 1.3 3 .6 0 1.4-1.2 1.4-3 0-1.7-.8-3-1.4-3zm6-15.9c3.5 0 6.1 3.4 6.1 7.3 0 4-2.6 7.2-6 7.2s-6-3.3-6-7.2c0-4 2.5-7.3 6-7.3zm0 3c-1.5 0-3 1.8-3 4.3s1.5 4.3 3 4.3c1.6 0 3-1.8 3-4.3s-1.4-4.4-3-4.4zm-12.4-3a4 4 0 110 8 4 4 0 010-8zm0 2.7a1.3 1.3 0 100 2.7 1.3 1.3 0 000-2.7zM229 33c1.2 0 2 1 2 2v2.4h.4c1.5.3 2.8.9 4 1.7l.4.2 1.6-1.6a2 2 0 012.8-.2l.1.2a2 2 0 010 3l-1.6 1.5.2.3c.8 1.3 1.4 2.6 1.7 4v.4h2.3c1.1 0 2 .8 2 1.9l.1.2c0 1.2-1 2-2 2h-2.4v.4c-.3 1.5-.9 2.8-1.7 4l-.2.4 1.6 1.6c.8.7.8 2 .2 2.8l-.2.1a2 2 0 01-3 0l-1.5-1.6-.3.2c-1.3.8-2.6 1.4-4 1.7h-.4V63c0 1.1-.8 2-1.9 2l-.2.1a2 2 0 01-2-2v-2.4h-.4c-1.5-.3-2.8-.9-4-1.7l-.4-.2-1.6 1.6a2 2 0 01-2.8.2l-.1-.2a2 2 0 010-3l1.6-1.5-.2-.3c-.8-1.3-1.4-2.6-1.7-4V51H215c-1.1 0-2-.8-2-1.9l-.1-.2c0-1.2 1-2 2-2h2.4v-.4c.3-1.5.9-2.8 1.7-4l.2-.4-1.6-1.6a2 2 0 01-.2-2.8l.2-.1a2 2 0 013 0l1.5 1.6.3-.2c1.3-.8 2.6-1.4 4-1.7h.4V35c0-1.1.8-2 1.9-2zm0 1.4c-.4 0-.7.3-.7.7v3.5h-.6c-1.9.3-3.6 1-5.1 2.2l-.5.4-.5-.6-2-2a.7.7 0 10-1 1l2 2 .6.4-.4.6a10.4 10.4 0 00-2.2 5.1v.6H215a.7.7 0 000 1.4h3.5v.6c.3 1.9 1 3.6 2.2 5.1l.4.5-.6.5-2 2a.7.7 0 101 1l2-2 .5-.6.5.4c1.5 1.2 3.2 2 5.1 2.2h.6V63a.7.7 0 001.4 0v-3.5h.6c1.9-.3 3.6-1 5.1-2.2l.5-.4.5.6 2 2a.7.7 0 101-1l-2-2-.6-.4.4-.6c1.2-1.5 2-3.2 2.2-5.1v-.6h3.5a.7.7 0 000-1.4h-3.5v-.6c-.3-1.9-1-3.6-2.2-5.1l-.4-.5.6-.5 2-2a.7.7 0 10-1-1l-2 2-.5.6-.5-.4a10.4 10.4 0 00-5.1-2.2h-.6V35c0-.4-.3-.7-.7-.7zm2 15.6c1.2 0 2 1.4 2 3s-.8 3-2 3-2-1.4-2-3 .8-3 2-3zm0 1.5c-.3 0-.7.6-.7 1.5s.4 1.5.7 1.5c.3 0 .7-.6.7-1.5s-.4-1.5-.7-1.5zm3-7.5c1.7 0 3 1.6 3 3.5s-1.3 3.5-3 3.5-3-1.6-3-3.5 1.3-3.5 3-3.5zm0 1.4c-.8 0-1.5.9-1.5 2.1 0 1.2.7 2.1 1.5 2.1s1.5-.9 1.5-2.1c0-1.2-.7-2.1-1.5-2.1zm-6-1.4a2 2 0 110 4 2 2 0 010-4zm0 1.3a.7.7 0 100 1.4.7.7 0 000-1.4zM283 4c1.2 0 2 1 2 2v2.4h.4c1.5.3 2.8.9 4 1.7l.4.2 1.6-1.6a2 2 0 012.8-.2l.1.2a2 2 0 010 3l-1.6 1.5.2.3c.8 1.3 1.4 2.6 1.7 4v.4h2.3c1.1 0 2 .8 2 1.9l.1.2c0 1.2-1 2-2 2h-2.4v.4c-.3 1.5-.9 2.8-1.7 4l-.2.4 1.6 1.6c.8.7.8 2 .2 2.8l-.2.1a2 2 0 01-3 0l-1.5-1.6-.3.2c-1.3.8-2.6 1.4-4 1.7h-.4V34c0 1.1-.8 2-1.9 2l-.2.1a2 2 0 01-2-2v-2.4h-.4c-1.5-.3-2.8-.9-4-1.7l-.4-.2-1.6 1.6a2 2 0 01-2.8.2l-.1-.2a2 2 0 010-3l1.6-1.5-.2-.3c-.8-1.3-1.4-2.6-1.7-4V22H269c-1.1 0-2-.8-2-1.9l-.1-.2c0-1.2 1-2 2-2h2.4v-.4c.3-1.5.9-2.8 1.7-4l.2-.4-1.6-1.6a2 2 0 01-.2-2.8l.2-.1a2 2 0 013 0l1.5 1.6.3-.2c1.3-.8 2.6-1.4 4-1.7h.4V6c0-1.1.8-2 1.9-2zm0 1.4c-.4 0-.7.3-.7.7v3.5h-.6c-1.9.3-3.6 1-5.1 2.2l-.5.4-.5-.6-2-2a.7.7 0 10-1 1l2 2 .6.4-.4.6a10.4 10.4 0 00-2.2 5.1v.6H269a.7.7 0 000 1.4h3.5v.6c.3 1.9 1 3.6 2.2 5.1l.4.5-.6.5-2 2a.7.7 0 101 1l2-2 .5-.6.5.4c1.5 1.2 3.2 2 5.1 2.2h.6V34a.7.7 0 001.4 0v-3.5h.6c1.9-.3 3.6-1 5.1-2.2l.5-.4.5.6 2 2a.7.7 0 101-1l-2-2-.6-.4.4-.6c1.2-1.5 2-3.2 2.2-5.1v-.6h3.5a.7.7 0 000-1.4h-3.5v-.6c-.3-1.9-1-3.6-2.2-5.1l-.4-.5.6-.5 2-2a.7.7 0 10-1-1l-2 2-.5.6-.5-.4a10.4 10.4 0 00-5.1-2.2h-.6V6c0-.4-.3-.7-.7-.7zm2 15.6c1.2 0 2 1.4 2 3s-.8 3-2 3-2-1.4-2-3 .8-3 2-3zm0 1.5c-.3 0-.7.6-.7 1.5s.4 1.5.7 1.5c.3 0 .7-.6.7-1.5s-.4-1.5-.7-1.5zm3-7.5c1.7 0 3 1.6 3 3.5s-1.3 3.5-3 3.5-3-1.6-3-3.5 1.3-3.5 3-3.5zm0 1.4c-.8 0-1.5.9-1.5 2.1 0 1.2.7 2.1 1.5 2.1s1.5-.9 1.5-2.1c0-1.2-.7-2.1-1.5-2.1zm-6-1.4a2 2 0 110 4 2 2 0 010-4zm0 1.3a.7.7 0 100 1.4.7.7 0 000-1.4zM120 62c1.2 0 2 1 2 2v2.4h.4c1.5.3 2.8.9 4 1.7l.4.2 1.6-1.6a2 2 0 012.8-.2l.1.2a2 2 0 010 3l-1.6 1.5.2.3c.8 1.3 1.4 2.6 1.7 4v.4h2.3c1.1 0 2 .8 2 1.9l.1.2c0 1.2-1 2-2 2h-2.4v.4c-.3 1.5-.9 2.8-1.7 4l-.2.4 1.6 1.6c.8.7.8 2 .2 2.8l-.2.1a2 2 0 01-3 0l-1.5-1.6-.3.2c-1.3.8-2.6 1.4-4 1.7h-.4V92c0 1.1-.8 2-1.9 2l-.2.1a2 2 0 01-2-2v-2.4h-.4c-1.5-.3-2.8-.9-4-1.7l-.4-.2-1.6 1.6a2 2 0 01-2.8.2l-.1-.2a2 2 0 010-3l1.6-1.5-.2-.3c-.8-1.3-1.4-2.6-1.7-4V80H106c-1.1 0-2-.8-2-1.9l-.1-.2c0-1.2 1-2 2-2h2.4v-.4c.3-1.5.9-2.8 1.7-4l.2-.4-1.6-1.6a2 2 0 01-.2-2.8l.2-.1a2 2 0 013 0l1.5 1.6.3-.2c1.3-.8 2.6-1.4 4-1.7h.4V64c0-1.1.8-2 1.9-2zm0 1.4c-.4 0-.7.3-.7.7v3.5h-.6c-1.9.3-3.6 1-5.1 2.2l-.5.4-.5-.6-2-2a.7.7 0 10-1 1l2 2 .6.4-.4.6a10.4 10.4 0 00-2.2 5.1v.6H106a.7.7 0 000 1.4h3.5v.6c.3 1.9 1 3.6 2.2 5.1l.4.5-.6.5-2 2a.7.7 0 101 1l2-2 .5-.6.5.4c1.5 1.2 3.2 2 5.1 2.2h.6V92a.7.7 0 001.4 0v-3.5h.6c1.9-.3 3.6-1 5.1-2.2l.5-.4.5.6 2 2a.7.7 0 101-1l-2-2-.6-.4.4-.6c1.2-1.5 2-3.2 2.2-5.1v-.6h3.5a.7.7 0 000-1.4h-3.5v-.6c-.3-1.9-1-3.6-2.2-5.1l-.4-.5.6-.5 2-2a.7.7 0 10-1-1l-2 2-.5.6-.5-.4a10.4 10.4 0 00-5.1-2.2h-.6V64c0-.4-.3-.7-.7-.7zm2 15.6c1.2 0 2 1.4 2 3s-.8 3-2 3-2-1.4-2-3 .8-3 2-3zm0 1.5c-.3 0-.7.6-.7 1.5s.4 1.5.7 1.5c.3 0 .7-.6.7-1.5s-.4-1.5-.7-1.5zm3-7.5c1.7 0 3 1.6 3 3.5s-1.3 3.5-3 3.5-3-1.6-3-3.5 1.3-3.5 3-3.5zm0 1.4c-.8 0-1.5.9-1.5 2.1 0 1.2.7 2.1 1.5 2.1s1.5-.9 1.5-2.1c0-1.2-.7-2.1-1.5-2.1zm-6-1.4a2 2 0 110 4 2 2 0 010-4zm0 1.3a.7.7 0 100 1.4.7.7 0 000-1.4zm68 9.7c1.2 0 2 1 2 2v2.4h.4c1.5.3 2.8.9 4 1.7l.4.2 1.6-1.6a2 2 0 012.8-.2l.1.2a2 2 0 010 3l-1.6 1.5.2.3c.8 1.3 1.4 2.6 1.7 4v.4h2.3c1.1 0 2 .8 2 1.9l.1.2c0 1.2-1 2-2 2h-2.4v.4c-.3 1.5-.9 2.8-1.7 4l-.2.4 1.6 1.6c.8.7.8 2 .2 2.8l-.2.1a2 2 0 01-3 0l-1.5-1.6-.3.2c-1.3.8-2.6 1.4-4 1.7h-.4v2.3c0 1.1-.8 2-1.9 2l-.2.1a2 2 0 01-2-2v-2.4h-.4c-1.5-.3-2.8-.9-4-1.7l-.4-.2-1.6 1.6a2 2 0 01-2.8.2l-.1-.2a2 2 0 010-3l1.6-1.5-.2-.3c-.8-1.3-1.4-2.6-1.7-4v-.4H173c-1.1 0-2-.8-2-1.9l-.1-.2c0-1.2 1-2 2-2h2.4v-.4c.3-1.5.9-2.8 1.7-4l.2-.4-1.6-1.6a2 2 0 01-.2-2.8l.2-.1a2 2 0 013 0l1.5 1.6.3-.2c1.3-.8 2.6-1.4 4-1.7h.4V86c0-1.1.8-2 1.9-2zm0 1.4c-.4 0-.7.3-.7.7v3.5h-.6c-1.9.3-3.6 1-5.1 2.2l-.5.4-.5-.6-2-2a.7.7 0 10-1 1l2 2 .6.4-.4.6a10.4 10.4 0 00-2.2 5.1v.6H173a.7.7 0 000 1.4h3.5v.6c.3 1.9 1 3.6 2.2 5.1l.4.5-.6.5-2 2a.7.7 0 101 1l2-2 .5-.6.5.4c1.5 1.2 3.2 2 5.1 2.2h.6v3.5a.7.7 0 001.4 0v-3.5h.6c1.9-.3 3.6-1 5.1-2.2l.5-.4.5.6 2 2a.7.7 0 101-1l-2-2-.6-.4.4-.6c1.2-1.5 2-3.2 2.2-5.1v-.6h3.5a.7.7 0 000-1.4h-3.5v-.6c-.3-1.9-1-3.6-2.2-5.1l-.4-.5.6-.5 2-2a.7.7 0 10-1-1l-2 2-.5.6-.5-.4a10.4 10.4 0 00-5.1-2.2h-.6V86c0-.4-.3-.7-.7-.7zm2 15.6c1.2 0 2 1.4 2 3s-.8 3-2 3-2-1.4-2-3 .8-3 2-3zm0 1.5c-.3 0-.7.6-.7 1.5s.4 1.5.7 1.5c.3 0 .7-.6.7-1.5s-.4-1.5-.7-1.5zm3-7.5c1.7 0 3 1.6 3 3.5s-1.3 3.5-3 3.5-3-1.6-3-3.5 1.3-3.5 3-3.5zm0 1.4c-.8 0-1.5.9-1.5 2.1 0 1.2.7 2.1 1.5 2.1s1.5-.9 1.5-2.1c0-1.2-.7-2.1-1.5-2.1zm-6-1.4a2 2 0 110 4 2 2 0 010-4zm0 1.3a.7.7 0 100 1.4.7.7 0 000-1.4zM63 20c1 0 1.7.8 1.7 1.7v1.8l.3.1c1.2.2 2.3.7 3.3 1.4l.2.1 1.3-1.3c.6-.6 1.6-.7 2.3-.1v.1c.8.7.8 1.7 0 2.4L71 27.5l.1.2c.7 1 1.2 2.1 1.4 3.3v.3h1.9c.9 0 1.6.7 1.7 1.5v.2c0 1-.8 1.7-1.7 1.7h-1.8l-.1.3a9.6 9.6 0 01-1.4 3.3l-.1.2 1.3 1.3c.6.6.7 1.6.1 2.3h-.1c-.7.8-1.7.8-2.4 0L68.5 41l-.2.1c-1 .7-2.1 1.2-3.3 1.4h-.3v1.9c0 .9-.7 1.6-1.5 1.7H63c-1 0-1.7-.8-1.7-1.7v-1.8l-.3-.1a9.6 9.6 0 01-3.3-1.4l-.2-.1-1.3 1.3c-.6.6-1.6.7-2.3.1v-.1c-.8-.7-.8-1.7 0-2.4l1.2-1.3-.1-.2c-.7-1-1.2-2.1-1.4-3.3v-.3h-1.9c-.9 0-1.6-.7-1.7-1.5V33c0-1 .8-1.7 1.7-1.7h1.8l.1-.3c.2-1.2.7-2.3 1.4-3.3l.1-.2-1.3-1.3c-.6-.6-.7-1.6-.1-2.3h.1c.7-.8 1.7-.8 2.4 0l1.3 1.2.2-.1c1-.7 2.1-1.2 3.3-1.4h.3v-1.9c0-.9.7-1.6 1.5-1.7zm0 1.1c-.3 0-.6.3-.6.6V24.5H62c-1.5.3-2.9.9-4.1 1.8l-.4.3-.4-.4-1.6-1.6a.6.6 0 00-.8 0c-.2.2-.2.6 0 .8l1.6 1.6.5.3-.4.5a8.4 8.4 0 00-1.7 4.1v.6h-2.9a.6.6 0 100 1H54.5v.6c.3 1.5.9 2.9 1.8 4.1l.3.4-.4.4-1.6 1.6c-.2.2-.2.6 0 .8.2.2.6.2.8 0l1.6-1.6.4-.4.4.3c1.2 1 2.6 1.5 4.1 1.7h.6v2.9a.6.6 0 101 0v-2.8h.6c1.5-.3 2.9-.9 4.1-1.8l.4-.3.4.4 1.6 1.6c.2.2.6.2.8 0 .2-.2.2-.6 0-.8L69.8 39l-.5-.3.4-.5c1-1.2 1.5-2.6 1.7-4.1v-.6h2.9a.6.6 0 100-1H71.5v-.6c-.3-1.5-.9-2.9-1.8-4.1l-.3-.4.4-.4 1.6-1.6a.6.6 0 00-.8-.8L69 26.2l-.4.4-.4-.3a8.4 8.4 0 00-4.1-1.7h-.6v-2.9c0-.3-.2-.6-.5-.6zm1.6 12.7c1 0 1.7 1.1 1.7 2.5 0 1.3-.7 2.4-1.7 2.4S63 37.6 63 36.2c0-1.3.7-2.4 1.6-2.4zm0 1.2c-.2 0-.5.5-.5 1.2s.3 1.3.5 1.3c.3 0 .6-.5.6-1.2 0-.8-.3-1.3-.6-1.3zm2.5-6c1.4 0 2.4 1.2 2.4 2.8s-1 2.8-2.4 2.8-2.5-1.3-2.5-2.8c0-1.6 1-2.9 2.5-2.9zm0 1c-.7 0-1.3.8-1.3 1.8s.6 1.7 1.3 1.7c.6 0 1.2-.7 1.2-1.7S67.7 30 67 30zm-5-1a1.6 1.6 0 110 3.2 1.6 1.6 0 010-3.3zm0 1z" fill-rule="nonzero"/></g></g></svg>