<svg xmlns="http://www.w3.org/2000/svg" xmlns:xlink="http://www.w3.org/1999/xlink" width="76" height="76"><defs><linearGradient id="c" x1="50%" x2="50%" y1="0%" y2="100%"><stop offset="0%" stop-color="#FFF"/><stop offset="100%" stop-color="#9FD8E5"/></linearGradient><filter id="a" width="182.1%" height="182.1%" x="-41.1%" y="-41.1%" filterUnits="objectBoundingBox"><feOffset dy="2" in="SourceAlpha" result="shadowOffsetOuter1"/><feGaussianBlur in="shadowOffsetOuter1" result="shadowBlurOuter1" stdDeviation="5"/><feColorMatrix in="shadowBlurOuter1" result="shadowMatrixOuter1" values="0 0 0 0 0 0 0 0 0 0 0 0 0 0 0 0 0 0 0.820476399 0"/><feMerge><feMergeNode in="shadowMatrixOuter1"/><feMergeNode in="SourceGraphic"/></feMerge></filter><circle id="b" cx="28" cy="28" r="28"/></defs><g fill="none" fill-rule="evenodd" filter="url(#a)" transform="translate(10 8)"><mask id="d" fill="#fff"><use xlink:href="#b"/></mask><use fill="url(#c)" xlink:href="#b"/><g mask="url(#d)"><path fill="#8FA7DF" d="M0 147.8c-1.7 0-3.3-.3-4.8-.6-.7-.2-1.4-.3-2-.6a3 3 0 01-1.4-1.9c-.3-1-.2-2.2.2-3l.4-.5c1-1.6 2-3.1 2.5-5l.1-.6-.6.3c-.1 0-.4-.1-.7-.5-1.1-2-1-4.3-.8-6.6V127c.5-5.8 1.8-12 4.1-19.5 1.8-4.7 2.6-9.6 3.4-14.3l1-5.4v-.3H.5c-.5 0-.8-.1-1-.4-.8-1.5-1-3.3-1-5l-.1-1.5v-.3h-.8v.3h-1.1-.1-.2c-.6 0-.9-.1-1-.3-.2-.2-.2-.6-.1-1.2v-.4-1.6c0-1.1 0-2.3.2-3.5-1.7-10.7-.6-21.5.5-29.7v-.4c.2-1.4.4-2.8 1-4.2A6.1 6.1 0 01-.4 36c1.2-.7 2.7-1 4.2-1.3a21 21 0 004.2-1.2H8.4l.4-.2.5-.1h.1v-.2c.4-.5.6-1.1.8-1.8v-.5-.7c.1-.7.5-1.2 1.2-1.6.5-.4 1.3-.6 2-.6.4 0 .8 0 1 .2h.1c.6 0 1.6.3 2.2 1.1l.1.2h.2v.6l.3.8v.3c.3 1.1.7 2 1.4 2.7l.1.1.1.2.5.3.1.1h.4l.2.1H20.8v-.2h1c1.4 0 2.5.2 3.5.6 3.5 1.7 4.7 7.4 5.5 11.5l.5 2L33.4 60l2 11c.4 2 .7 4.3-.8 5.7l-.2.2.2.2c.2.2.1.5 0 .8v.2c0 1.6-.4 3-.8 4a5.2 5.2 0 01-2.5 2.8l-.2.1v.1c0 .2-.3.3-.6.3a1 1 0 01-.5-.1l-.3-.2v.4a150.7 150.7 0 00-3.8 30.1c-.3 5.6-.6 11.4-2.2 16.9V132.8c1 .9 2 1.3 3.2 1.7a18 18 0 016.4 4c1.6 1.5 2.3 3 1.8 4.2-.4 1.1-1.8 1.7-3.7 1.7l-3 .2c-4.2 0-8.3-1-11.4-1.8-1-.2-1.8-.7-2.5-1.5-.6-.8-1-1.7-1-2.7 0-1 .5-2.3 1.4-2.7l.6-.3-.7-.3c-.3 0-.5-.5-.7-1l-.3-.5c-.8-1.7-1.4-3.6-1.8-5.6-1.2-4.8-.4-9.7.4-14.4a41 41 0 00.8-12.6h-.6c-.9 3.4-1.5 6.9-2 10.3-.8 4-1.5 8.3-2.7 12.4-1.3 4.4-3 8.1-5.3 11.2l-.2.1.2.2s-.2.2-.5.2l-.1.1c-.4.5 0 1.2.3 1.6v.1l1 1.7v.1c.7 1.2 1.5 2.7 1.8 4.1.4 1.6 0 2.8-1 3.7-.4.4-1 .5-1.4.5h-.4c-.8.2-1.5.3-2.4.3"/><path fill="#9FD8E5" d="M8.6 33.3c.2 0 .3.2.3.5l.5 3.8 1 11.4 1.6 9.5.1.9a205 205 0 012.4 15.4v.1l-.2 5.5h-.1c-1.2.4-2 .6-2.5.6l-3.8-.6h-.2l-1.7.3-1-.5-1.2-2-5.8.6.1 1.5h-.5v.3l-2.3-.2h-.1c-.2-.2-.2-.6-.1-1.1V78.7 77c0-1.1 0-2.2.2-3.3-1.7-10.7-.6-21.5.5-29.7v-.7c.2-1.3.4-2.6 1-3.9A6.1 6.1 0 01-.4 36c1.1-.6 2.5-1 3.9-1.2l.7-.2c1.3-.2 2.6-.5 3.8-1l.1-.1h.4zm13 .9c1.5 0 2.6.2 3.6.6 3.3 1.7 4.6 7 5.4 11l.3 1.1c0 .5.2 1 .3 1.3l2 10.6.6 3.2 1.6 9c.4 1.7.6 3.5-.1 4.8l-2.4 1.8v2.2a6 6 0 01-2.9.6h-4l-1.3-7.1-1-10.3-.4-13.9-1-8-1.2-4.2-1.6-2.4.3-.1H20.8v-.2h1z"/><path fill="#D08B5B" d="M3.5 78.4c0-.3 0-.2.1 0 .5 0 .7.4.5.7.7 1 1.6 1.6 2.3 2.6.5.8.8 2.1-.6 2-.2 0-.3 0-.4.2 0 1.5.3 2.9-1.5 3.3-1.3.2-2.7.2-4 .3-.6 0-.5-.8-.5-1.2l-.9-3.6v-.1c-.2-1-.4-2-.2-3-.2-.3-.3-.7 0-.8 1.7-.3 3.5-.3 5.2-.4zm29.7-.4c.2-.3 1.2-1.1 1.4-.6.3 2-.6 3.6-1.3 5.2 0 .2-.2.3-.3.4-.2.5-3 3.3-3 2l.7-2.8c.5-2.6 1.2-1.4 2.3-2.2.3-.6-.1-1.4.2-2zM10.7 28.5c1.1-1.5 4.8-1.5 6 0 .7.2 1 2.4 1 3 .2 1 .8 2 1.5 2.7.6 1 0 2-.2 2.9l-.5 1.6c-.5 1.1-.8 3.4-2.2 3.6a.8.8 0 01-.8-.5c-.8-.5-1.4-1.2-2-1.8-.8-.7-1.3-1.6-1.9-2.4-.8-1-2.5-2-2.2-3.7 0 0-.1.2-.2.1.5-1 .9-2 1-3.2 0-.9-.2-1.5.5-2.3z"/><path fill="#FFF" d="M-.8 135.9c.7 0 1.7-.4 2.3.1l.7 1.4c.9 2 2.3 3.7 2.6 5.9.2 1.8-.9 4.3-2.9 4-2.6 0-5.3-.2-7.9-1-.7.2-1.4-.4-1.7-1-.9-1.3-.2-3 .5-4.3a24 24 0 001.8-4.1c-.1-.2 0-.5.2-.5l1.2-.2 3.2-.3zm24.4-3c.4-.7.8.3 1 .6 1.4 1.1 3.4 1.2 4.8 2.3.6.4 1.3.8 1.6 1.3l.2.1c1.5 1 3.4 2.5 3.7 4.5v.3c0 3-4.4 2-6.4 2h-.3c-3.3 0-6.7-.1-9.8-1.4-.5.2-1 0-1.6-.2-.7-.2-1.5-.5-2-1.1-.6-.9-.8-2.1-.7-3.2v-.1c0-.6.1-1.3.6-1.7.6-1.2 2.1-.9 3.2-1.3 1.7-.5 4-2.3 5.7-2zm-1.4-83.6c-.2-.3-.5-.8-.9-1H21c-.6-.2-1.1 0-1.4.6h-.1c-.3.3-.6.7-.6 1.2s.3 1 .7 1h.7c.7.3 1.6 0 2-.6.2-.3.2-.8 0-1.2"/><path fill="#000" d="M10.1 29.5c.5 1.3.3 2.8-.3 4-.2.4-.4.7-.7.8l.1.2a35.2 35.2 0 006.6 7.3v.1c.2.1.3.3.5.3.4-.2 1-1.4 1.2-1.8a18 18 0 001.9-5.6c-.1-.3-.4-.5-.6-.7l-.8-1c-.3-.7-.6-1.6-.5-2.5h.1c.2 1 .5 2 1.2 2.7.3 0 .5-.1.8 0a1.2 1.2 0 01.8.6h.5c3.1-.2 6.2.8 7.5 4 1.6 3.2 2.3 6.8 3 10.3l4.3 22.7v.1c.4 2 .7 4.4-.9 5.9.3.3.2.9.2 1.3-.3 2.6-1 5.8-3.6 7-.1.5-1 .6-1.5.3-2.2 8.9-3 18-3.5 27v.3c-.5 6.6-.6 13.4-2.4 19.8.8.8 2 1.3 3 1.7 2.5.8 4.7 2.2 6.5 4 3.3 3 2.6 6.4-2.1 6.4-4.4.4-8.8 0-13-1.3-.3 0-.5 0-.7-.2l-.8-.1c-2-.5-3.7-2.3-3.7-4.5 0-1.1.5-2.5 1.5-3-.3 0-.6-.4-.7-.8a26 26 0 01-2.3-6.5c-1.9-7.4 1-14.8 1.4-22.2a25.6 25.6 0 00-.5-3.8c-2.6 11.2-2.8 23.5-9.8 33 .2.3-.3.6-.6.6-.3.4.2 1 .4 1.4l1 1.6.1.4c1.3 2.4 3 5.8.6 8-.6.4-1.3.6-2 .5-.8.2-1.6.3-2.4.2-1.6 0-3.2-.2-4.8-.5l-.2-.1-1.8-.6c-1.8-.9-2.3-3.6-1.3-5.3l1.2-1.8a14 14 0 001.6-3.5h-.3c-2.5-1.5-1.7-6.6-1.6-9.2.5-6.7 2-13.2 4-19.6 2.4-6.3 3-13 4.4-19.6H.8c-.6 0-1.2 0-1.5-.6A13 13 0 01-2 81.6V81h-.2H-3c-.6-.1-1.2 0-1.8-.2-.8-.3-.5-1.3-.5-2 0-1.7 0-3.4.2-5.1-1.6-9.9-.8-19.9.5-29.7.5-5.3 2-8.6 7.6-9.4 1.4-.3 2.9-.5 4.2-1-4 2.4-9.2 1.1-10.6 7.3a97.6 97.6 0 000 38l1.3-.4c2.2-.3 4.5 0 6.4-1L3.1 71C.9 63 5.6 55.3 4.7 47.3c1.9 8.1-3.2 16.2-.6 24.4l.7 3c0 .5.7 3.6-.1 3.4l-.5.2c.2 1 1 1.6 1.7 2.3 2-.9 4.2.1 6.3 0l1.8-.3c.4-10-2.2-19.6-3.7-29.3h-.1c0 .1 0 .2-.2.3-.5.4-1.6.5-1.4-.5.2-.7 1.1-.7 1.4 0l.2-.1v-.8c-2.2-2.1-3.7-5.3-3.8-8.4h-.2c-.1 0-.2 0-.2-.2V41v-.6c-.2-1.4.8-2.8 2.2-3.2-.2-.2-.3-.6-.3-.8a4.8 4.8 0 01-.2-2.2c0-.7.2-1.3.7-1.8.3-.3.8-.5 1.2-.3.3-.8.5-1.7.5-2.5zM2 136c-1.3.2-2.6.1-3.9 0-.4.9-.6 1.7-.8 2.6-.2 1.3-1 .9-.5-.2.3-.9.7-1.6 1.3-2.3-1.2 0-2.3 0-3.4.3 0 2-1 3.8-2 5.4-1 1.5-.5 4 1.3 4.4 2.5.8 5.2.9 7.8 1 0-.3.4-.4.6-.3.7 0 1.4-.3 1.8-.8 1.6-2.6-1.2-5.8-2-8.2v-.1c-.2-.5-.6-1.4-.2-1.8zm21.8-2.5a3 3 0 00-.9 0l-.7.2 1 1v.1c.3.4.7.8.9 1.3 0 .1-.2.3-.3.2-.5-.3-.7-.7-1-1.2l-.7-1.3-1.2.2-2.6 1.4a7.2 7.2 0 00-.8 3.8c-.5 1-1.1-2.2.5-3.7-1 .4-2 .6-2.9.3 0 0 0 .1 0 0-.2-.2-.6.7-.7.8a4 4 0 002.8 5.7c1.4.3 8.3 1.7 11.8 1.7 1.5-.1 5 .3 5.7-1.4.5-2-1.7-3.8-3.1-5-.9-.7-1.8-1.3-2.8-1.8-1.3-.7-2.8-1.2-4-2.1h-.2-.2-.2l-.4-.2zm4.6 7c-.6 0-.8-1.4-.4-1l.2.4c.2.2.6.5.2.6zm-29.2-3.8v1l.5.7c0 .2-.2.4-.3.2-.4-.5-.5-1.4-.2-2zm21.5-2.5c.3.6.4 1.4.5 2 0 .4.7 1.7 0 1.8-.5 0-.5-1.3-.6-1.8 0-.7-.1-1.4.1-2zm-6-56.5c0 .5.1 3.1-.5 3-1.7 1.2-4.2.4-6.1.2L6 80.7c1.1 1 2.3 4-.2 3.3-.4.4-.1 1-.1 1.5.1 1-.4 2-1.5 2l-3 .3c-.4 3.7-.8 7.4-1.4 11-.6 3.4-1.7 6.4-2.6 9.6a73.9 73.9 0 00-3.8 24l.3 1.8c.2.6.6 1 1 1.5v.6c2.2-1.2 4.9-.3 7.2-1l.2-.7c2-2.7 3.4-5.8 4.6-9 2.2-6.5 3-13.5 4.4-20.3a62.8 62.8 0 017-19.3l-.1.4c-2 4.7-3.8 9.5-5 14.4 2.6 10.5-4 20 .9 31.2l.7 1.6c.1.4.6 1 .6 1.5 1.9.4 3.4-1 5-1.8.5-.2 1.3-.6 1.8-.5l1-.8.1-.3c2.7-10 2-20.5 3.3-30.7a101 101 0 014.3-20.2c-.6.2-6 .5-5.2-.6l-.5-2.4-1.9.1.8 2c.3.7.1 2-.8 1.8-.8-.3-1.3-1.7-1-2.4 0-.1.1-.1.1 0l.6 1.3.4.4c.3-.6-.8-2.3-.9-3 .4 1.1-1 2-1.9 1.3L19 81.4c-.2.4-.5.7-.8.8-.4.2-.8 0-1-.4-.2-.8.7-2.1 1.2-2.7.1-.4.4-.8.8-1h-.2c-1.4 0-2.9 0-4.2-.4zm-17.3 58.5zm2.9-7.8l-1.6 6.2c-.2 1.4-1.1 1-.7-.3.5-2 1.3-4 2.3-5.9zm15.8.6c.4 1.3 1 2.5 1.7 3.6.3.4.6.7.7 1.1 0 .2-.1.3-.3.2-.4-.2-.6-.6-.9-1a8.3 8.3 0 01-1.2-3.9zm-13.4 2.7s.2 0 .1.1c-.1.4-1.1 2.5-1.3 1.7.3-.7.8-1.2 1.2-1.8zm21.2 1l.1.1v-.1zm-11-31.4l-.1.3.2.8-.1-1.1zM3.7 78.5c-1.8.5-3.7.3-5.6.4.5 2.4.4 4.9 1.2 7.2.4 1 .6 1.3 1.7 1.1l2.7-.1h.1c.4 0 .9-.2 1.1-.5.6-.7 0-1.8.3-2.6.4-1 .9-.1 1.5-.5.4-.2 0-1-.2-1.3-.6-1-1.6-1.7-2.3-2.7v-.1l-.5-1zm30.7-1.2l-1.2.5v2c0 .2 0 .3-.2.4l-1.8.5-.5 1.8v.2l-.7 2.5c.8.2 1.5-.5 2-1 1.8-1.8 2.3-4.5 2.4-7zm-14.5.7h-.3v.1c-.7.8-1.4 1.6-1.7 2.5-.1.3-.4 1.4.2.8.7-1 1.2-2 1.9-2.8a1 1 0 01-.1-.6zm-24.7-3v4.4c0 .3-.1.8.3.9l2.3.1h.2v-.8l-.1-.5h-1.5c-.1.1-.3 0-.4-.1l-.8-4zm25.3-41v.3a45 45 0 01.8 2.2l.1.2.7 1.8c3 13.6 1 27.9 4 41.5 2.1.4 4.3.3 6.4-.4l-.1-3.1c-.3-3.4-.8-6.8-1.4-10.1l-2 .2h-.8c-.2-.4.4-.4.6-.4h.3l1.9.1c-1.4-7.6-3.4-15.3-3-23.1.6 11.4 4.2 22.3 5.1 33.7 2.2-.7 2.3-3.5 1.9-5.5l-2.5-13.6c-1-5.3-1.8-10.7-3.3-15.9v-.1c-1-2.9-2-6.2-5.1-7.1-1.2-.4-2.4-.6-3.6-.6zm.6 44h-.6c0 .3.2.4.3.6v.3c.3.1.8 0 .8-.4 0-.3-.4-.2-.5-.5zm-1 0v.1zm-11-43.5l.4 2.7c1 .2 1.7 1.3 2.3 2.2.1.3.5.8.5 1.2 0 0 .1 0 0 .2v.2c.6 1.6 1 3.3 1.2 5 .3 1.6.2 3.7-1.4 4.4.4.1.8 0 1.2-.1 0-.7.8-1 1.2-.4.5.7-.4 1.5-1 .9 0-.1-.1-.2 0-.2-.7.3-1.4.3-2 0l-.6.2c.5 3.7 1.3 7.4 2 11v.4a88 88 0 011.8 15.4c3.3-.4 6.7-.2 10.1-.7-2-11.3-.7-22.9-2.5-34.2l-.6 2.4c-.2.9-.7 1.8-.6 2.7 2.6.6 2 4.2-.7 3.9-2.2-.1-2.4-2.6-.9-3.5l.6-.4.3-.1c0-1 .5-1.9.7-2.8a10.2 10.2 0 00.2-6.8c-.4-1-1-2-1.6-2.8a15 15 0 01-2 6c-.4.4-.7 1.1-1.2 1.3-.6.2-1.1-.5-1.5-.8-2.4-2-4.6-4.5-6-7.3zm16.8 38c.2-.6.8-.5 1.2-.1.3.3.3.9 0 1.2-.5.5-1.4.2-1.4-.5l.2-.4v-.2zm.1.3v.2l.3.3c.2 0 .5-.3.3-.4H26.3l-.3-.1zM7.6 68.4h3.5c1.2.7-6.5.3-7 .2l3.5-.2zm17.8-2c-.4-.6.4-1.2.6-.4.3.4-.6 1-.6.3zm-.7-7c-.2-.4 0-1 .5-.8.2.2.5.6.2.8-.2.2-.6.2-.7 0zm-.5-5.6c0-.4.5-.7.7-.4.3.2.3.5 0 .7l-.2.1c-.3.1-.5-.2-.5-.4zm-3.9-5.6c-.7.4-1 .7-1.2 1.3-.1.6.2 1.3.8 1.5 2.4.7 3.3-1.9 1.3-2.6l-.9-.2zM9.7 50.8H9c-.1.3 0 .3.2.3l.4-.3zm4.5-.7c-.1-.2-.4-.2-.5 0v.2s0 .2.2.2h.1c.2 0 .4-.2.2-.4zm-3.4.3v.1h.1l-.1-.1zM9.5 37.7c.3 2 .4 4 .5 6l.7 6c.3.3.5.5.9.6 3.1-1.2 1-6.8.3-9.3l-.1-.2-.2-.5c-.5-1-1-2.2-2-2.6zm11 12.3c-.3-.4.4-.7.6-.3.2.4-.5.8-.6.3zM9.1 37.6c-.6 0-1.1 0-1.5.3l-.6.6c-.4.7-.5 1.6-.3 2.5v.5C7 44.2 8 47 10 49c-.6-3.8-.7-7.7-1-11.5zm15 9.8c.4-.4 1 .6.5.8-.5.2-1-.5-.6-.8zm-.8-5.6c0-.1 0 0 0 0v.2c.5-.3 1 .3.6.8-.2.2-.6.2-.7-.1-.2-.3 0-.7 0-1zm.4.5l-.3.1c0 .5.5 0 .3 0zM9.5 32.2c-.7.2-1.1 1-1.2 1.7a6.1 6.1 0 00.3 2.2l.1.2.3.6a64.3 64.3 0 00-.3-3.3v-.5.4c.4-.4.6-.9.8-1.3zm9.3 1.1l.4.5c.3.2 1 .6.7 1l.8 1-.3-.9-.3-.8h-.4V34h.3a1 1 0 00-.5-.4l-.2-.1-.5-.2z"/><g><path fill="#D08B5B" d="M21.6 16.7c-.2-1 .4-1.3 0-2.4-1-2-3.5-1.8-5.3-2A13.9 13.9 0 008.9 14c-.4.3-.3.7-.1 1-1.6 2.3-.7 5.4-2 7.9L6 24.2c-.3.7-.3 1.7.4 2.1 1 .6 1.6-.5 2.1 1 2.5 5.6 7.6 5.9 12.4 3l1.2-.8c.7-.8.6-2 .6-3v-1.7c0-2.4-.8-5.7-1.1-8z"/><path fill="#000" d="M11.3 10.1a18.3 18.3 0 0114-.4h.1c.4.2.8.3 1 .6.4.3.5.8.2 1.2-.1.4-.5.6-.8.7l.3.3c.2.2.2.5 0 .7a3 3 0 01-1.4.9c.1.2 0 .5 0 .8-.4.8-1.4 1-2.2.9v.5c-.1.3-.3.5-.5.5a40 40 0 011.2 7.2v.3l.3 2.7c0 .8 0 1.6-.6 2.2-.4.6-1 1-1.7 1.4-1.5.7-3 1.3-4.7 1.6h-2.1c-.5-.2-1.1-.6-1-1.2 0-.2.4-.3.5 0 .1.2.2.3.5.4.2.2.5.2.8.2.8 0 1.6-.2 2.3-.4a11 11 0 004-1.8c.5-.4 1-.9 1-1.5.2-.8 0-1.6 0-2.4l-.6-4.7v-.3c-.2-1.3-.4-2.6-.4-4h-.1v-.2-.2-.7-.1l-.7.1a24 24 0 01-9.3-.3c-.4 0-.7-.2-1-.3-.3.5-.5 1-.5 1.7 0 .6.5 1.2.4 1.9-.1.6-.6.8-1.2 1H9c-.2 0-.3.1-.3.3V23.1l.1.2-.2-.1v.1H8l-.3-.3-.7.1c-.4.2-.6.5-.8.9l.2.2-.2-.2-.1.5c-.1.6 0 1.3.5 1.6a1.4 1.4 0 001.1.1h.5c.2 0 .3.3.2.4v.1l.3.5a16.7 16.7 0 002 2.5c.3.3.6.4 1 .6.1.1.2.4 0 .5-.4.5-1 .1-1.5-.2l-1-1.2a7 7 0 01-1-2.5l-.2.2a2 2 0 01-.5 0c-.4 0-.7 0-1-.2-1.4-.6-1.6-2.5-.8-3.6l-.2-1c-.4-1.5-.6-3 0-4.5 0-.2.2-.3.3-.5l.2-.5c.1-.3-.4-.7-.6-1-.2-.3-.2-.6 0-1h.2c-.3-.5-.3-1 0-1.4.2-.3.5-.5.9-.5H7c1.3-1.1 2.7-2 4.2-2.8zM6.6 24.5c.3-.3.7-.5 1.1-.4.5 0 1 .2 1.3.6.2.3-.2.7-.5.5l-.8-.5c-.4-.1-.7-.2-1-.1l-.1-.1z"/><path fill="#000" d="M16.9 26.6c.2-.4.8.7.9.8v.5h.7c.3 0 .5-.2.8-.3.2-.1.4 0 .5.2.1.2 0 .4-.1.5-.3.3-.9.3-1.2.3-.3 0-.5-.2-.6-.3v.1c0 .3-.1.7-.4 1-.4.2-.9-.4-.5-.7.3-.2.3-.7.3-1v-.5h-.1c0-.1-.2-.6-.3-.5zm2-2.4c.4.2 1 .7.6 1.2s-1.1 0-1.4-.3c-.3-.2-.7.3-.4.5 2.3 1.8 3.3-1.4 1.5-1.7-.2 0-.3.2-.2.3zm-3.7-2c.3-.1.7 0 1 .2.3.2.6.6.4 1h-.4c-.2 0-.2-.3-.4-.5a.8.8 0 00-.5-.2c-.5 0-.8.5-.9.9h-.1c-.3-.6.2-1.3.9-1.4zm5.6-.3c.6 0 1.4.7 1.3 1.4-.1.3-.6.3-.7 0 0-.2 0-.4-.2-.5a.5.5 0 00-.4-.2l-.5.2-.3.4h-.1c-.2-.2 0-.6 0-.8.2-.2.5-.4.9-.5zm-7-1c.5-.4 1.3-.7 1.9-.6.3.2.5.7 0 .9-.4.2-.8 0-1.3.3-.2 0-.3.2-.5.3 0 .2-.2.3-.3.4h-.1c-.4-.4.1-1 .4-1.3zm6.2-.6a2 2 0 011.6.3c.3.2.6.5.6.8 0 .3-.3.5-.6.3l-.4-.5a1.6 1.6 0 00-1.1-.4h-.5c0 .1 0 0-.2 0 0-.3.4-.4.6-.5z"/><path fill="#FFF" d="M23 25.2c0-1.2-1.4-1.6-2.1-1.8-2.4-.5-4.4.9-7.3 1l-1.4-.2-5.8-1.5c-.3 0-.3.4-.2.6a26 26 0 006 1.3c0 1.9-1 3.8-2.3 4.8 2.2 2.4 7.3 3.2 10.3 2 1.5-.5 3-4.4 2.9-6.2"/><path fill="#000" d="M6.3 22.8l.1-.3c2.4.6 5.3 1.7 7.8 1.6 1.8 0 3.4-1 5.2-1 1.2 0 2.7.2 3.6 1.1 1 3.6-1.4 8.4-5.4 8.4H17c-2.6-.2-5.4-.5-7-2.7-.3-.1-.3-.5 0-.7l.2-.2c1.2-1 2-2.6 2-4.2-.3.1-7.2-1.3-6-1.7a29.7 29.7 0 006 1.4v-.2c-2-.4-3.9-1-5.8-1.5zm16.2 1.4c-4.1-2-6.2 1-10.1.1.4 1.9-.7 3.9-2 5 2 1.8 2.9 2 5.5 2.4h.4l1.5.1c2.7-.2 4.8-3 5.1-5.5 0-.7 0-1.4-.3-2l-.1-.1zm-5.7 1.6c.1 0 .2.1.2.3-.3.4-1 .6-1.5.6-.6.1-1.1 0-1.7-.1.6 0 1 0 1.6-.2.5-.1.9-.4 1.4-.6zm3.8-.3l.5.2c.5.3 1 .3 1.6.4v.3c-.7.2-1.7-.3-2-.9z"/></g><g><path fill="#8FA7DF" d="M24.5 146c2.4-2.6 6-3.5 9-5.2v-.1l.5-.3.2-.2c-3-11.3-1.9-21.4-3.5-33.2-1.4-.1-3 0-4.5-.5A31.7 31.7 0 0125 91.1c-1.2-1.3-1.8-4.5-2-7V84l-.3-.4c-.9-1.9-.6-3.7-.1-5.9 2.4-10.5 3-22.2 7.1-32.2 1.1-2.6 3.6-3.8 6.3-3.8h.2l.4-.6c0-.4.3-.6.5-.8l1-.4c.2 0 .6-.2 1 0 0 0 .1.2.3.2.5-1 .5-2 1.3-2.9.9-.8 2-1.6 3.3-1.6 1 .1 3 .2 3.5 1.2.5.5.7 1.2.8 2h.3l.6.5c.5.4 1 1 1.6 1.3.3.1 0 .5 0 .7 1.2.2 2.3.5 3.4 1 2.6.3 4.8 1.2 6 3a79.1 79.1 0 012.4 34.9l-.1.3-.3 2.2-.7 3.6-.1-.2h-.7a213.4 213.4 0 002.3 17.7c-1.6.1-3.3.4-5 .7 1.7 9 6.7 21.7 6.8 30 0 3 1 8.3-2 9 .6 2.1 1.8 3.9 3 5.6.8 1.6.4 4.1-1.3 5-2.8 1-6 1.5-9 .8-.6.2-1.2 0-1.7-.4-3-2.5.3-6.8 1.7-9.5.3-.5.9-1.3.3-2h-.5c.2-.3.2-.3 0-.5-6.7-8.8-7.2-22-9.8-32.7H45c-1.4 12 5 20.2-1.4 32.4-.2.7-.8.7-1.3.8 3.6 1.4 2 6.7-1.4 7.3a43.3 43.3 0 01-14.3 1.6c-4.3 0-5.1-3-2-5.9"/><path fill="#FFDBB4" d="M55.3 86c-.4 0-1-.4-1.3-.2-.1 0-1.1 2-1.8 2.6-.8.7-1.4 1.6-1.2 2.6.1.4 1 .2 1.3.2.2 1.8-.5 3.1 1.8 3.4h.3c1.1.2 3.3.5 4 0 .2-.4.2-.9.2-1.3.5-.9.5-2 .5-3 0-.4 1.1-4.3.6-4-1.4-.4-3-.2-4.4-.3zm-31.5-1.2h-.3c-.2 0-.1 0 0 0-.2.5 1 7.3 1.7 5.5 0-1.3.3-2.6.5-4 .2-1.2-1-1.3-1.9-1.5zm24-48.5c-1-1.8-4.6-1.2-6.1-.5-1.8.7-1.6 2.7-2 4.2-.6.2-1.2.5-1.4 1.2l-.6 1.7c0 .3-.2.7.1.8 2.6 1.8 7 1.1 9.7-.3.5-.2.5-1.4.5-1.8l.1-1.2c.2-.2.5-1.5 0-1.5 0-.9 0-1.8-.3-2.6z"/><path fill="#FFF" d="M58.6 143.4c-.7 0-1.7-.4-2.3.1l-.7 1.4c-.9 2-2.3 3.7-2.6 6-.2 1.7.9 4.2 3 4 2.6 0 5.3-.3 7.8-1 .7.1 1.4-.5 1.7-1 .9-1.4.3-3.1-.4-4.4a24 24 0 01-2-4.1c.2-.2.2-.5 0-.5l-1.3-.2-3.2-.3zm-24.4-3c-.3-.7-.8.3-1 .6-1.4 1.1-3.4 1.2-4.8 2.3-.6.4-1.2.8-1.6 1.3l-.1.1c-1.6 1-3.5 2.5-3.7 4.5l-.2.3c.1 3 4.5 2 6.5 2h.3c3.3 0 6.7-.1 9.8-1.4.5.2 1.1 0 1.6-.1.8-.3 1.5-.6 2-1.2.6-.9.8-2.1.7-3.2v-.1c0-.6 0-1.3-.5-1.7-.7-1.2-2.2-.9-3.3-1.3-1.6-.5-4-2.3-5.7-2zM48.6 39.3l-1 4.8-1 9.5a154.3 154.3 0 00-1.4 12.6v1.6a88.5 88.5 0 000 21.3v.7c0 .6 0 1.3.2 1.9l.1 1.8a66 66 0 001.7 11.6v.2l.5 1.7c.1.1.3.1.4 0 .2.2.4.3.6.2a38.8 38.8 0 0110.5-3.1l2.6-.3h.2l.6-.3h.1v-.3c.1-.3 0-.7-.2-1 0-.2-.2-.3-.3-.5a42.4 42.4 0 01-.4-2.5 370 370 0 01-.9-6.4l-.6-4.7v-1c0-.4.2-.4.3-.7h.6c.3.1.3-.3.4-.6.8-3.1 1.2-6.4 1.4-9.6.4-5.7.1-11.4-.4-17v-.2c-.2-2.8-.4-5.5-.8-8.2-.2-1.2-.4-2.4-.8-3.5V47l-.4-.8-.5-.6a6.4 6.4 0 00-1.2-1.3l-.6-.6c-1.5-1-3.4-1.3-5.1-1.6-.5-.1-.6-.5-1-.6l-1.2-.3.1-.7c0-.4-.5-.3-.7-.6l-1.2-.9c-.1 0-.3-.4-.4-.3l-.2.4zm-9.6 1c0-.2 0-.4-.3-.3a5 5 0 00-2.6 1.7 7.3 7.3 0 00-3.2.7c-.5.2-1 .5-1.3 1a3 3 0 00-.3.3c-1 .7-1.6 2-2 3A85.2 85.2 0 0026.5 58l-.2 1a41 41 0 00-.3 2.8l-.6 2a143 143 0 00-2.9 18.3l.2.3v.2c.2.7.7 1.2 1.2 1.6l2 1-.4 2.8A57.2 57.2 0 0026 105v.2c0 .3.1.7.3 1 .1.3.4.3.5.2l1 .1a30.9 30.9 0 003.7.3l1-.1.4-.2.4-.1s.1-.1 0-.1v-.3.2h-.1V105l-.2-1a41 41 0 01-.3-2.3c-.3-2.7-.3-5.4-.3-8v-.5l-.1-3.5V89l.2-2.9L33 76v-1.6c.4-1.6.5-3.2.7-4.8l.9-9.4c0-1.6.2-3.2.3-4.7a254 254 0 00.3-2.6l1.3-6.8c.2-1 1.3-4 1.5-4.4 0-.2.6-1 .8-1.2l.2-.3H39zm15 45.2l2 .6h2.7c.5 0 1.3.2 1.3.3v.2c-.2.6-.2 1.3-.2 1.9v.7a27 27 0 01-1.4 5.6l-.2.3h-1.7a20.5 20.5 0 01-4-.4l-.1-1.6-.1-.7c-.1-.5-.2-1-.7-1.1a2 2 0 00-.7-.2c0-.7 0-1.3.3-1.8l.8-1 .4-.4c.6-.6 1.2-1.2 1.3-2.1l.3-.3zm-4.2 8c-.1-.1 0-.2 0-.1z"/><path fill="#9FD8E5" d="M47.6 43.4l-.4 3.3L46 57.5l-1.2 10-.4 14v2h-1.6l-5.6.8-4.6-.7L34 66.4 35.4 54a86 86 0 012-10.1c.2-.3 1 1 3.7 1 1.9 0 4-.5 6.5-1.4z"/><path fill="#000" d="M48 36.6c-.2.3-.2.8-.1 1.2l.3 1.3.1.2-.7 3.4v.6l-.4.1-.7.3a13.4 13.4 0 01-4 1 10.8 10.8 0 01-4-.7l-.4-.2-.4-.4.2-.7.4-.9a68.4 68.4 0 01.5-.8c.5-.2.9-.6 1-1.1.2-.3.3-.6.3-1v-.1-.7H40l-.2.7v.1l-.2.7-.5.7v-.1l.1-.3v-.2a.8.8 0 00-.8 0c-.2 0-.5 0-.7.2-.5.2-.9.5-1.2.9l-.5.6c-2.8 0-5.4 1.2-6.6 4a42.5 42.5 0 00-3 10.3l-4.1 21.8c-.3 0-.3.4-.1.5l-.1.4v.1c-.3 1.7-.6 3.6.3 5v.3l.3.3.1.8v.8c.3 1.9.7 4.1 2 5.6a52 52 0 00-.1 10.4 18.5 18.5 0 001.4 5.1l.2.2c1.4.2 2.7.3 4.1.3.5 4.2.8 8.5 1 12.8v.2c.5 6.7.6 13.4 2.5 19.8h-.2l-.5.3-.1.3c-.7.5-1.6.8-2.4 1-2.3 1-4.6 2.3-6.4 4-3.3 3.2-2.6 6.5 2.2 6.5 4.3.4 8.8 0 13-1.3.2 0 .5 0 .7-.2l.7-.1c2-.5 3.7-2.3 3.7-4.5 0-1.1-.5-2.5-1.5-3 .4 0 .6-.4.7-.8a28.2 28.2 0 002.3-6.5c1.7-6.6-.4-13-1.1-19.6a55.8 55.8 0 010-5l.2-1v-.3c2.7 11 2.8 23.4 9.8 32.8-.2.4.3.7.6.7.3.4-.2 1-.4 1.4a38 38 0 00-1 1.7l-.1.3c-1.3 2.4-3 5.8-.5 8 .5.4 1.3.6 2 .5.7.2 1.5.3 2.3.2 1.6 0 3.2-.2 4.8-.5l.2-.1 1.8-.6c1.9-.9 2.3-3.6 1.3-5.3l-1.1-1.7c-.7-1.1-1.3-2.3-1.6-3.6h.3c2.4-1.5 1.6-6.6 1.6-9.2a89.7 89.7 0 00-4.2-19.6c-1.2-3.3-2-6.7-2.6-10 1.5-.4 3-.6 4.6-.8.3 0 .5-.2.5-.5l-.6-3.2-.1-.9a130 130 0 01-1.7-13c.2.2.6.3.7 0l.7-3.5v-.5l.3-1.8v-.2h.1c1.5-9.7.7-19.5-.6-29-.5-5.4-2-8.7-7.6-9.5l-3.5-.7v-.7c0-.2-.3-.3-.4-.4l-.6-.4-1.1-1-.4-.3h-.2a8.2 8.2 0 01-.4-1.3v-.6zm7.8 106.9c1.3.2 2.6.1 3.9.1.4.8.6 1.6.8 2.5.2 1.3 1 .9.5-.2-.2-.9-.7-1.6-1.2-2.3h.5l.9.1 1.1.1h.5l.3.1c0 2 1 3.8 2.1 5.4.9 1.5.4 4-1.4 4.4-2.5.8-5.2.9-7.8 1 0-.3-.3-.3-.6-.3-.7.1-1.4-.3-1.7-.8-1.6-2.6 1-5.8 1.9-8.2v-.1c.2-.5.6-1.4.2-1.8zm-21.2-2.7l.8.1c0 .2.1.2.2.3a9 9 0 00-1 1v.1c-.3.4-.7.8-.8 1.3-.1.2 0 .3.2.2.5-.3.8-.7 1-1.2l.7-1.4c1.3 0 2.6 1.1 3.8 1.7.7 1.1.8 2.5.8 3.8.5 1 1.2-2.2-.5-3.7 1 .4 2 .6 2.9.3 0 0 0 .1 0 0 .2-.2.6.7.7.8a4 4 0 01-2.8 5.7c-.1-.4-.7-.3-.6.1-.2 0-.6.1-.7.4-3.4.9-7 1.2-10.5 1.2-1.5-.1-5 .3-5.7-1.4-.5-2 1.8-3.8 3.1-5 .9-.7 1.8-1.3 2.8-1.8l2.8-1.3c.7.1 1.3-.5 1.8-.8l.8-.4h.2zm-5.2 7.2c.6 0 .8-1.4.4-1l-.2.4c-.1.2-.5.5-.2.6zm29.2-3.8v1l-.4.8c-.2.1.1.3.2.1.4-.5.6-1.3.2-2zm-21.5-2.5c-.3.6-.3 1.4-.5 2 0 .4-.7 1.7 0 1.8.5 0 .5-1.3.6-1.8v-2zm23.3 2zM44.3 83.6v.1a177 177 0 001.6 19.2v.3c.3 1.2.5 2.5 1 3.6l.8.9h.7l.6-.3a90.7 90.7 0 018.8-2.5l.2 1.5c.6 3.3 1.7 6.4 2.7 9.5a73.8 73.8 0 013.8 24c0 .6-.2 1.2-.4 1.8-.2.6-.6 1-1 1.5v.3h-.5c-2-.8-4.5 0-6.7-.7 0-.2 0-.5-.2-.7-2-2.7-3.4-5.8-4.5-9-2.3-6.5-3-13.5-4.5-20.3a62.8 62.8 0 00-7-19.3l.1.4c2 4.7 3.8 9.5 5 14.4-2.6 10.5 4 20.1-.9 31.3l-.6 1.5c-.2.4-.7 1-.7 1.5-1.9.4-3.4-1-5-1.8-.5-.2-1.5-.7-2-.5H35l-.1-.1-.2-1c-2.7-10-2-20.5-3.3-30.7l-.1-1.2c.7 0 1.4 0 2-.2.3 0 .6-.2.5-.4a121.1 121.1 0 01-.6-22.6l2.2.3a25.3 25.3 0 007-.4h.1l1.7-.4zm13.2 52.3l1.6 6.2c.2 1.4 1.1 1 .7-.3-.5-2-1.3-4-2.3-5.9zm-15.8.6c-.4 1.3-1 2.5-1.7 3.6-.3.4-.6.7-.7 1.1 0 .2.2.3.3.2.4-.1.7-.6.9-1a8.3 8.3 0 001.2-3.9zm13.4 2.8c0-.1-.2 0-.1 0 .2.4 1.1 2.5 1.3 1.7-.3-.7-.8-1.2-1.2-1.7zm-21 1.1l-.3.2.2-.2zM48.6 39h.1l1.6 1.3.2.2.3.3-.2.6-.2 1c-.2.9-.3 1.7-.3 2.6l.1 2 .1.8.1 1.2.2 2c0 .2 0 .2-.2.2a5.7 5.7 0 01-1.4.2c-.2 0-.3.4 0 .5l1.1.6.3.1.5.5v.7l-.4 2.8c0 .9-.2 1.7-.4 2.6l-.9 2.6-1.3 4.5-.3 1a51 51 0 00-1.6 8.5v.1l.1 2.7c0 .3.3.2.4 0v-3.3l.5-3.4 1.4-5.5v-.2c.6-1.8 1-3.7 1.7-5.5v-.2a14.1 14.1 0 001-4.7v-.4l.1-1.3c0-.4.2-.8 0-1.2 0-.4-.4-.6-.8-.8l-.4-.2.2-.1c.2 0 .6-.1.8-.4V51a54.2 54.2 0 00-.1-1.8l-.2-2.1-.1-2.1c0-1 .1-1.8.3-2.7l.2-1c3.9 2 8.6 1.2 10 7 1.7 10.4 2.5 21.2 1.1 31.7-1.3-.5-2.6-.7-4-.7-.2 0-.2.4 0 .4 1.4 0 2.7.3 4 .8l-1.1 5.8a8.8 8.8 0 01-.6-.2l-.8-.2c-2.2-.3-4.5 0-6.4-1l1.3-6.4c2.2-8-2.5-15.7-1.6-23.7-1.9 8.1 3.2 16.2.7 24.4l-.7 3c-.2.6-.7 3.6 0 3.4l.5.2c-.2 1-1 1.6-1.6 2.3l-.2.1c-1.1 1-2.3 4 .3 3.3.3.4 0 1 0 1.5-.1 1 .4 2 1.5 2l3 .3h.4c.6 0 1.2 0 1.5-.6.9-1.5 1-3.3 1.2-5.2v-.1l.2-1.7V86.8l.2-.4v.2l.5 4c.4 4.2 1.2 8.3 1.9 12.5l-.1.2-2.4.3h-.2c-4 .7-7.8 1.9-11.6 3.2h-.3v-.1a3.3 3.3 0 01-.3-.4v-.2l-.1-.1-.5-1.5a139.1 139.1 0 01-1.8-16.7 216.2 216.2 0 010-19.2c.1-3.1.5-6.2 1-9.3v-.7l.6-5 .4-5 .3-2.7.5-2.7.7-4V39zM37 41c.5-.6 1.2-1.1 2-1a33.9 33.9 0 00-.8 1.6l-.1.2c-.3.6-.7 1.2-.8 1.8-1.2 3.1-1.6 6.4-2 9.6L34 65.6v.7a438.4 438.4 0 00-1.7 27c0 4.3.2 8.6.7 12.8v.2c-2.1.2-4.2.2-6.3 0v-.1l-.4-1c-1-3.4-1.1-6.8-1-10.2.2-3.4.7-6.8 1.2-10.2v-.3c.6-3.4 1-6.8 1.5-10.3V74a5 5 0 001.8 1.2c.3.1.5-.3.2-.5-.8-.2-1.4-.7-2-1.3l1-9.5c0-.7 0-1.4.2-2a199.8 199.8 0 00.5-10.5l-.2 1.2A43.9 43.9 0 0029 57l-.7 6.8L27 75l-1.4 9.6c-1-.3-1.9-1-2.6-1.7a6.5 6.5 0 01-.3-4l.2-1.1c.6-.1 1-.1 1.6 0 .3 0 .3-.5 0-.6H23l2.3-12c1-5.3 1.7-10.7 3.2-15.9l.1-.2c.8-2.9 2-6.1 5-7 .7-.3 1.4-.4 2.1-.5l-1 2-1.7 3.5-.1.2c-.6 1.2-1.5 3.2-.7 4.5v.2c-.5.2-.9.6-1 1h-.1c-.4 1-.4 2-.3 2.8v.8a265.3 265.3 0 00.5 16.3v.3c.2 1.8.4 3.6.8 5.3 0 .2.3.2.3 0l-.6-6a164.7 164.7 0 01-.5-15.8v-.6c0-.8 0-1.7.2-2.5.2-.7.7-1.2 1.4-1.2.3 0 .4-.4.2-.5-.8-.5-.8-1.5-.6-2.3l1.1-2.7 1.7-3.4v-.2c.5-.8.9-1.6 1.5-2.3zm-6.6 63.8v.1s.1 0 0 0zM54.1 86c1.8.5 3.7.3 5.6.4l-.2.4-.2 2c-.1 1-.3 2.1-.3 3.2l-.5 1.6c-.3 1-.6 1.3-1.7 1.2l-2.7-.2H54c-.4 0-.9-.1-1.1-.5-.6-.7 0-1.8-.2-2.6-.5-1-1-.1-1.6-.5-.3-.2 0-1 .2-1.3.6-1 1.6-1.7 2.3-2.7l.5-1zm-30.5-1.3c.6.3 1.3.5 2 .6l-.1.7-.7 4.5c-.9-1.6-1.2-3.5-1.3-5.3v-.3h.2v-.2zm-.4-.8c.2 0 .2.1.3.2l-.3-.2zm24.3-40.4v.1c-.6 3.1-.8 6.3-1.1 9.5l-1.6 11.8a130.9 130.9 0 00-.5 18.4l-2.3.2h-.2c-2.9.3-5.7.5-8.5-.1a240.5 240.5 0 011.4-18.5c.4-4.3.7-8.6 1.2-12.8.3-2.8.8-5.5 1.6-8.2.3.5 1 .7 1.5.8h.2a11 11 0 007-.4l1-.6.3-.2zm6.9 30.7c.2-.2 0-.6-.3-.4-1.7.7-3.5 1.1-5.4 1.2-.3 0-.3.4 0 .4 2 0 3.9-.4 5.7-1.2z"/><g><path fill="#FFDBB4" d="M34 36.1c.3-.3.7-2.3 1-2.6 0-1.2-.3-5.3.6-7.2-.2-.2-.7-1.9-.6-2.5-.4-1.4 2.4-3.6 3.5-4.1 5-2.7 12.3.2 14.6 5.2 1.4 3 1.4 6.4 1.6 9.7v2c0 .6-.5 1.3-.2 1.8.4.3 1.3 1 .9 1.3-.2.2-.6.1-.8.3l-.3.2-3.4-.1c-.6 0-1.4.2-2-.3-2.3 1.3-1.3-.5-1.8-1.8-1.4.5-4 2-5.5 2-1.2.1-2.3-.5-3.5-.4-1.4.5-3.1.7-4.4-.2-.4-.3-.7 0-1.1-.3-.8-.3 1-2.6 1.5-3z"/><path fill="#D6B370" d="M53.1 25c-2.3-5-9.6-8-14.6-5.3-1 .5-4 2.7-3.5 4 0 .6.2 1.7.4 2.3 1 .7 4.1.6 9.2-.5h.2l1.7 1 .8 2.6c.4.5.8 1 1.1 1.8a2 2 0 011.8-.7c.7.3 1.2.6 1.5 1 .3.3.3 1 0 2.2v.1l-1.5.5h-.7l-2 2.4-.2 2.4c0 1-.2 2 1.5 1 .7.5 1.5.3 2 .3l3.5.1.3-.2c.2-.2.6-.1.8-.3.4-.4-.5-1-.9-1.3-.3-.5.2-1.2.3-1.8l-.1-2v-.3c-.2-3.2-.2-6.4-1.6-9.4zm-17.7 9.6L35 33v.6c-.3.3-.7 2.3-1 2.6-.4.6-2.2 2.7-1.4 3 .4.3.7 0 1 .3 1.4.9 3 .7 4.5.2h.5l.1-.2-1.6-1.4-1.7-3.4z"/><path fill="#000" d="M35.7 26.2c0-.1 0-.2-.1 0a15.8 15.8 0 00-.8 7l-.1.2v.2l-.3.7-.5 1.5-.8 1.4c-.2.5-.7.8-.9 1.3 0 .1 0 .4.2.3h.5c.1 0 .1 0 0 0h-.1c.4-.3.7-.8 1-1.2l.7-1.7.4-1.8V34l.6 1.8a7.6 7.6 0 002.5 3.6h-.1a2.9 2.9 0 01-.9.4h-1.5c-.2 0-.3.3-.1.4.5.3 1.1.2 1.7 0a3.2 3.2 0 001.2-.6c1 .6 2.5.7 3.7.5.7-.1 1.3-.4 1.9-.7.5-.4.9-.8 1.1-1.4 0 0 0-.1 0 0-.9 1-2.4 1.4-3.6 1.5-.7 0-1.4 0-2-.2-.7-.2-1.3-.6-1.7-1a9 9 0 01-1.9-3.6 15.6 15.6 0 01-.5-6.3l.4-2.1zM48.5 20s-.1 0 0 0a16.6 16.6 0 015.5 9.7 23 23 0 01.2 6.1v.6l-.1 1v1c.1.2.4.2.5 0l.8.9h-.5a1 1 0 00-.5.2h-.5c-.1 0-.2 0-.2.2l.6.5c.2 0 .4 0 .4-.2.1-.2.5-.2.6-.2.4.1.7.2 1 .1.3 0 .3-.3.1-.5-.6-.3-1.2-.7-1.7-1.2l.3-1 .1-1.2.1-2.5c0-2.9-.5-5.7-1.7-8.3-.6-1-1.3-2.1-2.1-3-.8-1-1.8-1.7-3-2.2zm1 13.8s0-.1-.1 0c-1 .6-1.6 1.5-2 2.6-.5 1-.8 2.3-.4 3.4.1.2.4.3.5 0 .1-1 .1-2.1.5-3.1.3-1 .8-2 1.5-2.9zm.7 3.5v1.1l.2.6v.5c.2.2.6.2.6-.1 0-.2 0-.4-.2-.5l-.1-.4-.1-.2-.4-1zm1.8-1a12.5 12.5 0 00.2 2.3v.1l.3.8c.1.2.4 0 .4-.2 0-.3-.2-.5-.3-.8l-.3-.7-.3-1.5zm-3.3 1.5h-.1V39.2c.2.3.5.1.5 0l-.1-.8-.2-.4h.2l-.3-.1zm-12.9.7a4 4 0 01-1.4.3c-.3 0-.3.4 0 .4.5 0 1-.3 1.4-.7zM52 31.3c-.4-.9-1.6-1.7-2.5-.9 0 0 0 .1 0 0 .6-.1 1.2.1 1.6.6.3.3.5.7.5 1.1 0 .5 0 1-.4 1.2-.1.2-.3.4-.6.4l-.6-.2c-.2 0-.3 0-.4.3 0 .3.4.6.7.6.4.1.7 0 1-.2 1-.6 1.2-1.9.7-2.9zm-9-9c-.3-.1-.6 0-.5.3.1.5.4 1 .8 1.4a12.3 12.3 0 002.1 2l.2.1.9.6a8.7 8.7 0 001.3 3.7v.1a3.6 3.6 0 001.3 1.4l-.3.3c0 .2.1.3.3.4l.8-.3c0 .2 0 .4.2.5h.2c.1-.2 0-.5-.1-.6V32 32c.4-.2.8-.2 1 .2 0-.5-.4-.7-.8-.7l-.8.1-.3.2v-.1L48.2 30a9.2 9.2 0 01-1.5-3.3h.1l-.1-.3a9 9 0 01-.2-1.7v1.5l-.8-.6a21.7 21.7 0 01-1.9-2.2l-.1-.2-.8-1zm.4-3.5c-2-.2-4 0-5.8 1-1 .5-1.7 1.3-2.3 2.2l-.6 1.8c-.1.7 0 1.3.4 1.8.2.2.5 0 .4-.2a5 5 0 011-3.7c1-1.6 2.8-2.3 4.6-2.6a13 13 0 012.7-.2c.7 0 1.4.1 2 .4-.8-.4-1.6-.5-2.4-.5zm-3 3c0-.1-.1 0-.2 0-.1.4.1.9.3 1.2l.7 1c.5.6 1.2 1.1 2 1.5v-.1a11 11 0 01-2.1-2.7c-.2-.4-.3-.8-.6-1zm-3.2.3c0-.2-.4-.1-.4.1 0 .6.3 1.3.6 1.8l1.3 1.4c-.4-.5-.8-1-1-1.5l-.5-1.8zm1.8 0c0-.2-.4-.2-.4 0 0 .6.5 1.3.8 1.8.4.6.8 1 1.4 1.5a5.8 5.8 0 01-1.5-2.5L39 22z"/><path fill="#000" d="M38.9 36.2h1c.4-.1.7-.3 1-.6.2-.2.3-.5.3-.9l-.1-.1H41l-.2.2c-.3.4-.6.6-1 .7H39c-.3 0-.5-.2-.6-.4l-.3-.2s-.2 0-.3.2v.5c.3.3.6.5 1 .6zm0-4.6c-.4.3-1 .8-.5 1.3.4.5 1 0 1.4-.3.3-.2.6.3.3.5-2.3 1.7-3.2-1.4-1.4-1.7.2 0 .3.2.2.2zm3.3-1h.4l.5.5.2.6v.1h.2c.2-.4.1-.6 0-1-.1-.3-.4-.6-.6-.7a1 1 0 00-1 0l-.6.6v.2c-.2 0-.2.2-.1.3l.2.2h.3l.2-.2c0-.2.2-.4.3-.5zm-5.8.5H36.7l.1-.2.2-.3.3-.1.3.2.1.1.2.2c.2-.1.2-.2.2-.3v-.3l-.7-.4a1 1 0 00-.7.1 1 1 0 00-.5.7v.2h.2zm5.3-2.8c.1.2.3.2.5.2h.3l.6.3a2.4 2.4 0 01.7.6h.1l.2.2v.2h.2l.1-.3-.1-.5-.6-.8-.9-.5-.7-.2-.4.2-.2.3c0 .1 0 .2.2.3zM36 29.7h.1c.1-.5.3-.8.8-1a3.1 3.1 0 01.9-.3c.2 0 .4 0 .6-.2v-.4l-.1-.3c-.4-.2-.8 0-1 .1h-.2l-.8.6c-.2.2-.4.5-.4.8v.7z"/></g></g></g></g></svg>